<svg xmlns="http://www.w3.org/2000/svg" viewBox="0 0 511.91 110.05"><defs><title>Shopware logo</title><style>.cls-1{fill:#0870ff}</style></defs><path d="M150.17 55.53c-4.68-2-8.53-3.87-8.53-6.92 0-2.14 2.42-4.17 6.5-4.17a24.4 24.4 0 0 1 10.07 2.34 2.19 2.19 0 0 0 3.05-.92l1.63-3.26a2.78 2.78 0 0 0-1-3.46 26.2 26.2 0 0 0-13.74-3.46c-11.4 0-16.06 6.92-16.06 12.82 0 7.73 6 11.6 13.21 14.86 6.51 2.95 10.07 5 10.07 8.14 0 2.65-2.24 4.58-6.21 4.58-5.6 0-8.95-1.93-11.7-3.46a2.09 2.09 0 0 0-3.05.61l-2.14 4.38a1.92 1.92 0 0 0 .81 2.44 27.33 27.33 0 0 0 15.47 4.78c10.48 0 16.79-6.41 16.79-13.74-.01-8.74-6.52-11.89-15.17-15.56M87.77 98c-4.77-3.6-11.83-6.34-19.29-9.23-8.88-3.44-19-7.35-26.51-13.36C33.41 68.59 29.24 60 29.24 49.12A29.74 29.74 0 0 1 40.95 25c8.59-6.76 21.61-10.34 37.64-10.34a93 93 0 0 1 12.58.81.79.79 0 0 0 .63-1.37A55 55 0 1 0 55 110a54.63 54.63 0 0 0 32.76-10.73.79.79 0 0 0 .32-.63.8.8 0 0 0-.31-.64" class="cls-1"/><path d="M109.83 49.94a.8.8 0 0 0-.28-.54C98.07 39.87 88.78 36 77.49 36c-6 0-10.64 1.21-13.72 3.59a10.16 10.16 0 0 0-4.08 8.31c0 9.45 11.55 13.76 24.93 18.75 6.89 2.57 14 5.23 20.56 8.86a.75.75 0 0 0 .38.1.9.9 0 0 0 .27-.05.8.8 0 0 0 .47-.46 54.9 54.9 0 0 0 3.77-20.1c-.01-1.6-.07-3.31-.24-5.06M426.12 84.26a2.52 2.52 0 0 0 2.38-2.47V57.92c0-12.21-1.49-21.67-17.21-21.67A52.7 52.7 0 0 0 394.4 39a2.22 2.22 0 0 0-1.59 2.87l1 4c.32 1.38 1.27 2.34 2.76 2a50.6 50.6 0 0 1 13.7-2.34c6.16 0 8.07 3.51 7.86 11.26a37.7 37.7 0 0 0-9.88-1.49c-12.64 0-19.65 6.8-19.65 15.83 0 10.2 6.47 13.65 15.71 13.65 7.54 0 15.3-.09 18.53-.3ZM418 75.6c-1.49 2.44-6.8 1.83-11.36 1.74-5.1-.11-7.65-1.89-7.65-6.25C399 66 403.32 63 409.06 63a22.3 22.3 0 0 1 8.92 1.7v10.9ZM506.32 35.69a5.57 5.57 0 1 0-5.59-5.57 5.58 5.58 0 0 0 5.59 5.57m0-10.32a4.75 4.75 0 1 1-4.7 4.75 4.75 4.75 0 0 1 4.7-4.75" class="cls-1"/><path d="M504.42 32.94h.52a.15.15 0 0 0 .15-.15v-2h1.22l1 2.1a.16.16 0 0 0 .17.1h.6a.15.15 0 0 0 .14-.23l-1.1-2a1.78 1.78 0 0 0 1.24-1.76 1.73 1.73 0 0 0-1.75-1.72h-2.19a.15.15 0 0 0-.15.15v5.33a.15.15 0 0 0 .15.18m.69-4.85h1.43a1 1 0 0 1 1 1 1 1 0 0 1-1 1h-1.43zM196.59 35.69A22.62 22.62 0 0 0 183 40.58v-21a2.41 2.41 0 0 0-2.24-2.24H175a2.33 2.33 0 0 0-2.24 2.24v63a2.26 2.26 0 0 0 2.24 2.26h5.6a2.16 2.16 0 0 0 2.4-2.24V52.18a14 14 0 0 1 12.31-6.82c6.11 0 9.36 4.58 9.36 12.31v24.94a2.26 2.26 0 0 0 2.24 2.24h5.7a2.33 2.33 0 0 0 2.24-2.24V57.88c-.05-12.82-4.93-22.19-18.26-22.19M315.78 58.37c-.56-16-7.25-22.68-22.66-22.68a65 65 0 0 0-17.53 2.79c-1.6.69-2.78 1.51-2.78 2.63v59.83a2.26 2.26 0 0 0 2.24 2.24h4.72a2.2 2.2 0 0 0 2.44-2.24V84a86 86 0 0 0 14.84.8c10.88-.34 18.18-8.24 18.79-21.58a59 59 0 0 0 0-6v1.1Zm-9.83 4.87c-.21 9.05-2.84 13.05-10.46 13.47-3.77.21-12.67-.84-12.67-.84a.69.69 0 0 1-.62-.62V46.51a.54.54 0 0 1 .49-.54 48.7 48.7 0 0 1 10.44-1.35c9.28 0 12.55 1.36 12.85 13.11.02 1.55.02 3.72-.03 5.51M383.17 36.71h-4.27c-1.22 0-3 0-3.56 1.43l-7.53 27.06h-.2L355 36.81a2 2 0 0 0-2-1.12h-.71a2.13 2.13 0 0 0-1.93 1.12L337.59 65.1h-.2l-7.73-27a2.07 2.07 0 0 0-2-1.43h-6.11a1.69 1.69 0 0 0-1.63 2.65l13.74 44.26a1.86 1.86 0 0 0 1.93 1.22h.61a1.77 1.77 0 0 0 1.8-1.08l14.45-32h.2l14.35 32a2.2 2.2 0 0 0 2 1.12h.41a2.16 2.16 0 0 0 2.14-1.22L385 39.36c.72-1.43-.2-2.65-1.83-2.65M458.23 36.25h-1.97c-2.44 0-4.78.08-7 .19-4.22.17-6.72.49-8.5.69 0 0-1.14.11-2.47.28a2.82 2.82 0 0 0-1.94 1 1.6 1.6 0 0 0-.44 1.11v43.07a2.26 2.26 0 0 0 2.24 2.24h4.68c1.93 0 3.26-.2 3.26-2.24v-35.8a1.4 1.4 0 0 1 .71-.79c1.15-.69 3.91-1.19 9.46-1.19h1.29a14.2 14.2 0 0 1 3.93.88 2 2 0 0 0 2.85-1.12l2.44-4c1.53-3.1-4.06-4.32-8.54-4.32M490.44 35.69C476.3 35.69 467 47 467 60.21c0 13.43 9.26 24.62 23.5 24.62 7.83 0 14-2.85 17.4-5.8 1.42-1.22 1-2.14.2-3.15l-2.75-4.27c-.81-1.22-1.73-.92-2.75-.2a18.28 18.28 0 0 1-11.5 4c-8.24 0-13.94-6.51-14-12.82h32.46a2.21 2.21 0 0 0 2.14-2c.1-.81.2-2.44.2-3.26 0-12.58-9.25-21.64-21.46-21.64M477.62 55c.71-5.9 5.19-10.68 12.62-10.68 6.92 0 11.4 5 11.6 10.68zM264.64 50.23a23.2 23.2 0 0 0-4.46-7.79 19.6 19.6 0 0 0-6.85-5 26.65 26.65 0 0 0-19 0 19.7 19.7 0 0 0-6.85 5 23.2 23.2 0 0 0-4.48 7.79 30.3 30.3 0 0 0-1.59 10A30.1 30.1 0 0 0 223 70.35a23.2 23.2 0 0 0 4.46 7.74 19.6 19.6 0 0 0 6.85 5 26.8 26.8 0 0 0 19 0 19.7 19.7 0 0 0 6.85-5 23.2 23.2 0 0 0 4.46-7.74 30.1 30.1 0 0 0 1.59-10.08 30.3 30.3 0 0 0-1.57-10.04m-21.1 26.51c-8.49 0-12.77-7.19-12.77-16.06s4.23-16.06 12.77-16.06 12.77 7.19 12.77 16.06-4.31 16.06-12.77 16.06" class="cls-1"/></svg>