<svg xmlns="http://www.w3.org/2000/svg" xml:space="preserve" viewBox="0 0 512 512"><path d="M187.47 342.46c-1.41 2.16-2.53 4.6-4.27 6.45-41.62 44.35-128.36 34.7-149.76-38.4-5.9-20.17-5.73-40.69-5.17-61.26 1.13-42.14 12.73-81.32 35.98-116.5 39.76-60.17 95.49-96.05 167.44-103.4 82.19-8.39 150.14 20.8 202.62 84.34 28.84 34.92 44.77 75.74 48.77 121.02 8.59 97.16-43.44 188.03-132.38 228.19-65.09 29.39-130.61 27.84-195.35-2.5-1.92-.9-3.73-2.03-5.85-3.2.72-1.7 1.09-3.03 1.8-4.14 9.88-15.53 19.93-30.96 29.66-46.59 2.4-3.85 4.57-4.26 8.63-2.49 45 19.58 90.43 19.84 134.68-.95 50.41-23.69 81.92-63.77 91.71-118.83 14.34-80.7-31.21-156.24-108.79-182.99-66.66-22.98-144.68 3.19-184.51 61.6-19.58 28.71-29.38 60.32-29.16 94.97.07 10.45.24 21.06 2.01 31.31 2.84 16.38 14.67 23.61 31.09 20.45 8.87-1.71 18.59-13.57 18.74-22.74.25-15.03-.59-30.2 1.08-45.07 5.75-51.16 47.48-91.4 98.67-96.27 59.02-5.61 111.12 34.64 120.59 93.16 10.02 61.93-35.34 120.8-97.81 127.16-26.97 2.75-51.41-3.87-73.76-18.89-1.31-.88-2.62-1.77-3.97-2.6-.31-.19-.76-.18-1.14-.26-.51-.52-1.03-1.04-1.55-1.57m113.9-86.26c.15-25.01-19.72-45.76-44.07-46.01-25.47-.26-46.33 19.83-46.58 44.86-.25 25.23 20.23 45.96 45.42 45.98 24.75.02 45.09-20.14 45.23-44.83" style="fill:#0079d9"/></svg>