<?xml version="1.0" encoding="utf-8"?>
<!-- Generator: Adobe Illustrator 24.2.1, SVG Export Plug-In . SVG Version: 6.00 Build 0)  -->
<svg version="1.1" id="Layer_1" xmlns="http://www.w3.org/2000/svg" xmlns:xlink="http://www.w3.org/1999/xlink" x="0px" y="0px"
	 viewBox="0 0 144.9 76.4" style="enable-background:new 0 0 144.9 76.4;" xml:space="preserve">
<style type="text/css">
	.st0{fill:#FFFFFF;}
	.st1{fill:#B2B2B2;}
	.st2{opacity:0.43;fill:#FFFFFF;}
	.st3{fill:#878787;}
	.st4{opacity:0.17;fill:#FFFFFF;}
	.st5{fill:#C6C6C6;}
</style>
<g>
	<g>
		<g>
			<path class="st0" d="M13.3,66.3c0,0,4.5-1.9,13.9-20.9c2.1-4.2,3.6-7,5.8-8.9c0,0,3.7-0.3,1.9,5.7C33.1,48.2,32.5,58,32.5,58
				s-5.1,10.7-5.9,11.5c-0.8,0.8-3.3,4.8-8.2,4.1S13.3,66.3,13.3,66.3z"/>
			<path class="st1" d="M13.3,66.3c0,0,4.5-1.9,13.9-20.9c2.1-4.2,3.6-7,5.8-8.9c0,0,3.7-0.3,1.9,5.7C33.1,48.2,32.5,58,32.5,58
				s-5.1,10.7-5.9,11.5c-0.8,0.8-3.3,4.8-8.2,4.1S13.3,66.3,13.3,66.3z"/>
			<path class="st2" d="M26.5,60.6c-5.5,11.3-7.4,9.2-7.4,9.2s-2.6-0.3-5.2-0.8c0.6,1.9,1.8,4.3,4.7,4.7c4.9,0.7,7.5-3.3,8.2-4.1
				c0.8-0.8,5.9-11.5,5.9-11.5s0.5-7.9,1.8-13.8C32.3,48.2,29.6,54.1,26.5,60.6z"/>
			<path class="st0" d="M2.2,0c0,0,18.7-0.6,16.9,30c-1.9,32.8,2.5,45.3,9.3,36.8c0,0-6.9,14-19.5,6.5C1.3,68.9,1,61.3,1,52.2
				C1,52.2,3.3,22.4,2.2,0z"/>
			<path class="st0" d="M44.8,61.8c0,0,4.5,12.4,19.3,8.8c0.1,0,0.2,0.2,0.1,0.2c-1.7,1.1-4.8,2.6-7.5,3.6
				C48.6,77.7,45.6,67.5,44.8,61.8z"/>
			<path class="st3" d="M44.8,61.8c0,0,4.5,12.4,19.3,8.8c0.1,0,0.2,0.2,0.1,0.2c-1.7,1.1-6,3.5-8.6,3.8
				C46.9,75.7,45.6,67.5,44.8,61.8z"/>
			<path class="st0" d="M42.2,34.8c-4.4-3.1-9.5,2-9.5,2c4.6-1.8-1.8,10.4,0.4,25c1.5,10.4,9.5,13.4,9.5,13.4l0,0
				c7,3,14.3-0.7,14.3-0.7C35.7,72.6,50.2,40.6,42.2,34.8z"/>
			<path class="st0" d="M42.2,34.8c-4.3-3.3-9.5,2-9.5,2c4.6-1.8-1.8,10.4,0.4,25c1.5,10.4,9.5,13.4,9.5,13.4l0,0
				c7,3,14.3-0.7,14.3-0.7C35.7,72.6,49.9,41.5,42.2,34.8z"/>
			<path class="st0" d="M8.8,39.6C11.4,4.8,2.2,0,2.2,0C3.5,20.1,1,52.2,1,52.2c0,9.5,0.3,16.7,7.8,21.2c12.7,7.5,19.5-6.5,19.5-6.5
				C19.6,82.5,6,75.5,8.8,39.6z"/>
			<path class="st0" d="M39.7,39.7c0.3-5-2.9-5-3.2-5c-2.4,0.7-3.9,2.1-3.9,2.1c4.6-1.8-1.8,10.4,0.4,25c1.5,10.4,9.5,13.4,9.5,13.4
				l0,0c7,3,14.3-0.7,14.3-0.7C32.4,83.3,39.4,45.1,39.7,39.7z"/>
			<path class="st4" d="M32.6,36.9c0,0,1.5-1.4,3.9-2.1c0.3,0,3.5,0,3.2,5c-0.3,5.4-8.1,43.5,17,34.8c-21.1-1.9-6.8-33-14.6-39.7
				C37.9,31.5,32.6,36.9,32.6,36.9z"/>
			<path class="st5" d="M2.2,0L2.2,0c0,0,9.3,4.8,6.6,39.6c-2.1,27.5,5.3,38,12.9,34.4c2.3-1.3,4-3.2,5.2-4.8c0.5-0.7,1-1.6,1.5-2.5
				c-6.8,8.5-11.1-4.1-9.3-36.8C20.8-0.5,2.2,0,2.2,0z"/>
		</g>
	</g>
	<g>
		<path class="st0" d="M68.8,59.2h1.7c-1.8,4.6-5,9.2-11.8,9.2c-5.7,0-9.8-3.3-9.8-11.4c0-5.8,2.2-14,10.5-14c6.3,0,6.5,4.7,6.5,5.8
			c0,5.9-4.8,9-9.7,9.3c0.1,4.4,1.3,6.2,4.9,6.2C65.1,64.2,66.9,62,68.8,59.2z M60.2,45.6c-2.2,0-3.8,4.7-4,10
			c3.3-0.2,5.9-3.2,5.9-6.9C62.1,46.5,61.2,45.6,60.2,45.6z"/>
		<path class="st0" d="M80.5,41.7c3.3,12.9,4.3,14.8,4.3,19.7c0,5.2-4.7,7-8.4,7c-5.8,0-8.8-4.1-8.8-7.4c0-1.8,0.8-3.1,1.8-3.6
			c1.9-4.9,3.2-9.8,3.8-14.7L80.5,41.7z M71.7,61.6c-0.5,0-1.1-0.1-1.5-0.6c0.5,2.3,1.6,3.5,3.8,3.5c1.9,0,3.5-0.9,3.5-3.5
			c0-3.5-0.7-5.2-2.7-12.6c-0.6,3.1-1.7,6.1-2.7,9.2c0.7,0.3,1.4,1,1.4,2.1C73.4,60.6,72.8,61.6,71.7,61.6z"/>
		<path class="st0" d="M99.3,23.4v10.7h4.1v2.7h-4.1v20.4c0,3.8,0.9,4.7,3.5,4.7c1,0,1.6-0.3,1.9-0.5c0.1,0.5,0.1,1,0.1,1.4
			c0,3.7-2.5,5.7-5.8,5.7c-7,0-9.4-4.2-9.4-10.5V36.8h-2.2v-2.7h2.2v-9.4L99.3,23.4z"/>
		<path class="st0" d="M110.9,32.6c2.2,0,4,1.8,4,4s-1.8,3.9-4,3.9c-2.2,0-3.9-1.7-3.9-3.9S108.7,32.6,110.9,32.6z M114.7,43.2v16.9
			c0,2.8,0.6,3.4,2.6,3.4s3.3-1.9,3.5-4.4h2.1c-1.1,8.1-5.8,9.2-8.5,9.2c-5.1,0-6.9-3.1-6.9-7.7V43.2H114.7z"/>
		<path class="st0" d="M141.3,43.2v16.9c0,2.8,0.6,3.4,2.6,3.4c0.4,0,0.7,0,1-0.2c-0.6,3.7-1.4,5-4.2,5c-3.3,0-4.9-1.8-5.6-4.6
			c-1,2.3-2.9,4.6-6.4,4.6c-4.2,0-8.8-2.9-8.8-11.5c0-6.1,2.6-13.9,9.5-13.9c1.6,0,3.8,0.3,4.7,2.6v-2.4H141.3z M127.2,56.4
			c0,7.1,2.4,7.2,3.7,7.2c1.4,0,3.2-1.4,3.2-4.3V47.9c-0.2-0.5-0.8-1.9-2.4-1.9C128.4,46.1,127.2,52.1,127.2,56.4z"/>
	</g>
</g>
<g>
</g>
<g>
</g>
<g>
</g>
<g>
</g>
<g>
</g>
<g>
</g>
</svg>
