<svg version="1.1" xmlns="http://www.w3.org/2000/svg" x="0" y="0" viewBox="0 0 70.7 37.5" style="enable-background:new 0 0 70.7 37.5" xml:space="preserve">
  <style>
    .st0{fill:#fff}
  </style>
  <path class="st0" d="M6 32.6s2.2-.9 6.8-10.2c1-2.1 1.8-3.4 2.8-4.4 0 0 1.8-.1.9 2.8s-1.2 7.8-1.2 7.8-2.5 5.3-2.9 5.6c-.4.4-1.6 2.3-4 2S6 32.6 6 32.6z"/>
  <path d="M6 32.6s2.2-.9 6.8-10.2c1-2.1 1.8-3.4 2.8-4.4 0 0 1.8-.1.9 2.8s-1.2 7.8-1.2 7.8-2.5 5.3-2.9 5.6c-.4.4-1.6 2.3-4 2S6 32.6 6 32.6z" style="opacity:.3;fill:#b2b2b2"/>
  <path d="M12.5 29.8c-2.7 5.6-3.7 4.5-3.7 4.5l-2.6-.4c.3.9.9 2.1 2.3 2.3 2.4.3 3.7-1.6 4-2 .4-.4 2.9-5.6 2.9-5.6s.2-3.9.9-6.8c-1 1.9-2.3 4.8-3.8 8z" style="opacity:.6;fill:#fff"/>
  <path class="st0" d="M.5 0s9.2-.3 8.3 14.7c-.9 16.1 1.3 22.3 4.6 18.1 0 0-3.4 6.9-9.6 3.2C.1 33.9 0 30.1 0 25.7 0 25.7 1.1 11 .5 0zM21.5 30.4s2.2 6.1 9.5 4.3c.1 0 .1.1.1.1-.9.5-2.4 1.3-3.7 1.8-4 1.6-5.5-3.4-5.9-6.2z"/>
  <path d="M21.5 30.4s2.2 6.1 9.5 4.3c.1 0 .1.1.1.1-.9.5-2.9 1.7-4.2 1.9-4.4.5-5-3.5-5.4-6.3z" style="opacity:.2;fill:#878787"/>
  <path class="st0" d="M20.2 17.1c-2.1-1.5-4.7 1-4.7 1 2.3-.9-.9 5.1.2 12.3.8 5.1 4.6 6.6 4.6 6.6 3.5 1.5 7-.3 7-.3-10.3-1-3.2-16.8-7.1-19.6z"/>
  <path class="st0" d="M20.2 17.1c-2.1-1.6-4.7 1-4.7 1 2.3-.9-.9 5.1.2 12.3.8 5.1 4.6 6.6 4.6 6.6 3.5 1.5 7-.3 7-.3-10.3-1-3.3-16.3-7.1-19.6zM3.8 19.5C5.1 2.4.5 0 .5 0 1.2 9.9 0 25.7 0 25.7c0 4.7.1 8.2 3.8 10.4 6.2 3.7 9.6-3.2 9.6-3.2-4.3 7.7-10.9 4.2-9.6-13.4z"/>
  <path class="st0" d="M19 19.5c.1-2.5-1.4-2.5-1.6-2.5-1.2.4-1.9 1.1-1.9 1.1 2.3-.9-.9 5.1.2 12.3.8 5.1 4.6 6.6 4.6 6.6 3.5 1.5 7-.3 7-.3-11.9 4.2-8.4-14.5-8.3-17.2z"/>
  <path d="M15.5 18.1s.7-.7 1.9-1.1c.2 0 1.7 0 1.6 2.5-.2 2.7-4 21.4 8.4 17.1-10.4-.9-3.4-16.2-7.2-19.5-2.1-1.6-4.7 1-4.7 1z" style="opacity:.17;fill:#fff"/>
  <path d="M.5 0S5 2.4 3.7 19.5C2.7 33 6.3 38.2 10 36.4c1.1-.6 2-1.6 2.5-2.3.3-.4.5-.8.8-1.2-3.3 4.2-5.5-2-4.6-18.1C9.7-.3.5 0 .5 0z" style="opacity:.3;fill:#c6c6c6"/>
  <path class="st0" d="M33.3 29.1h.8c-.9 2.2-2.5 4.5-5.8 4.5-2.8 0-4.8-1.6-4.8-5.6 0-2.8 1.1-6.9 5.2-6.9 3.1 0 3.2 2.3 3.2 2.8 0 2.9-2.4 4.4-4.8 4.6 0 2.2.6 3 2.4 3 2 .1 2.9-1 3.8-2.4zm-4.2-6.7c-1.1 0-1.9 2.3-2 4.9 1.6-.1 2.9-1.6 2.9-3.4 0-1-.5-1.5-.9-1.5z"/>
  <path class="st0" d="M39 20.5c1.6 6.3 2.1 7.3 2.1 9.7 0 2.6-2.3 3.4-4.1 3.4-2.9 0-4.3-2-4.3-3.6 0-.9.4-1.5.9-1.8.9-2.4 1.6-4.8 1.9-7.2l3.5-.5zm-4.3 9.8c-.2 0-.6-.1-.7-.3.2 1.1.8 1.7 1.9 1.7.9 0 1.7-.4 1.7-1.7 0-1.7-.3-2.5-1.3-6.2-.3 1.5-.8 3-1.3 4.5.4.2.7.5.7 1-.1.5-.4 1-1 1zM48.3 11.5v5.3h2v1.3h-2v10c0 1.9.4 2.3 1.7 2.3.5 0 .8-.1.9-.3v.7c0 1.8-1.2 2.8-2.9 2.8-3.4 0-4.6-2.1-4.6-5.2V18.1h-1.1v-1.3h1.1v-4.6l4.9-.7zM54 16c1.1 0 2 .9 2 2s-.9 1.9-2 1.9-1.9-.9-1.9-1.9c0-1.1.8-2 1.9-2zm1.8 5.2v8.3c0 1.4.3 1.7 1.3 1.7s1.6-.9 1.7-2.2h1c-.5 4-2.8 4.5-4.2 4.5-2.5 0-3.4-1.5-3.4-3.8v-8.6h3.6z"/>
  <path class="st0" d="M68.9 21.2v8.3c0 1.4.3 1.7 1.3 1.7.2 0 .3 0 .5-.1-.3 1.8-.7 2.5-2.1 2.5-1.6 0-2.4-.9-2.7-2.2-.5 1.1-1.4 2.2-3.2 2.2-2.1 0-4.3-1.4-4.3-5.7 0-3 1.3-6.8 4.7-6.8.8 0 1.9.1 2.3 1.3v-1.2h3.5zM62 27.7c0 3.5 1.2 3.5 1.8 3.5.7 0 1.6-.7 1.6-2.1v-5.5c-.1-.3-.4-.9-1.2-.9-1.6-.1-2.2 2.9-2.2 5z"/>
</svg>
