<svg xmlns="http://www.w3.org/2000/svg" xmlns:xlink="http://www.w3.org/1999/xlink" width="500" zoomAndPan="magnify" viewBox="0 0 375 374.999991" height="500" preserveAspectRatio="xMidYMid meet" version="1.2"><defs><clipPath id="a729f0d691"><path d="M 0 10.195312 L 292 10.195312 L 292 224 L 0 224 Z M 0 10.195312 "/></clipPath><clipPath id="858ac18c44"><path d="M 266 10.195312 L 351 10.195312 L 351 74 L 266 74 Z M 266 10.195312 "/></clipPath><clipPath id="0cb6d553d0"><path d="M 321 10.195312 L 375 10.195312 L 375 74 L 321 74 Z M 321 10.195312 "/></clipPath><clipPath id="f584b9f0bd"><path d="M 222 108 L 288 108 L 288 212 L 222 212 Z M 222 108 "/></clipPath><clipPath id="5034b7f515"><path d="M 221.976562 191.445312 L 281.980469 108.035156 L 319.117188 134.753906 L 259.113281 218.160156 Z M 221.976562 191.445312 "/></clipPath><clipPath id="5bc1a41152"><path d="M 221.976562 191.445312 L 281.980469 108.035156 L 319.117188 134.753906 L 259.113281 218.160156 Z M 221.976562 191.445312 "/></clipPath><clipPath id="e2c205e634"><path d="M 286 112 L 289 112 L 289 116 L 286 116 Z M 286 112 "/></clipPath><clipPath id="8412373279"><path d="M 221.976562 191.445312 L 281.980469 108.035156 L 319.117188 134.753906 L 259.113281 218.160156 Z M 221.976562 191.445312 "/></clipPath><clipPath id="4991bbb402"><path d="M 221.976562 191.445312 L 281.980469 108.035156 L 319.117188 134.753906 L 259.113281 218.160156 Z M 221.976562 191.445312 "/></clipPath><clipPath id="39d764e21b"><path d="M 252 124 L 312 124 L 312 218 L 252 218 Z M 252 124 "/></clipPath><clipPath id="58bad9ecea"><path d="M 221.976562 191.445312 L 281.980469 108.035156 L 319.117188 134.753906 L 259.113281 218.160156 Z M 221.976562 191.445312 "/></clipPath><clipPath id="1de1fba057"><path d="M 221.976562 191.445312 L 281.980469 108.035156 L 319.117188 134.753906 L 259.113281 218.160156 Z M 221.976562 191.445312 "/></clipPath></defs><g id="bef59dfd57"><g clip-rule="nonzero" clip-path="url(#a729f0d691)"><path style=" stroke:none;fill-rule:nonzero;fill:#d9d9d9;fill-opacity:1;" d="M 106.203125 168.402344 L 143.257812 223.066406 L 181.695312 168.714844 L 181.695312 73.628906 L 242.296875 73.628906 L 291.167969 10.171875 L 40.558594 10.171875 L -8.316406 73.628906 L 106.203125 73.628906 L 106.203125 168.402344 "/></g><g clip-rule="nonzero" clip-path="url(#858ac18c44)"><path style=" stroke:none;fill-rule:nonzero;fill:#5fc6f2;fill-opacity:1;" d="M 315.078125 10.171875 L 266.210938 73.628906 L 301.625 73.628906 L 350.496094 10.171875 L 315.078125 10.171875 "/></g><g clip-rule="nonzero" clip-path="url(#0cb6d553d0)"><path style=" stroke:none;fill-rule:nonzero;fill:#99def9;fill-opacity:1;" d="M 370.570312 10.171875 L 321.699219 73.628906 L 357.113281 73.628906 L 405.984375 10.171875 L 370.570312 10.171875 "/></g><path style=" stroke:none;fill-rule:nonzero;fill:#545454;fill-opacity:1;" d="M 257.46875 92.230469 L 142.953125 254.164062 L 55.367188 124.964844 L 55.367188 256.183594 L 141.492188 379.160156 L 346.457031 92.230469 L 257.46875 92.230469 "/><g clip-rule="nonzero" clip-path="url(#f584b9f0bd)"><g clip-rule="nonzero" clip-path="url(#5034b7f515)"><g clip-rule="nonzero" clip-path="url(#5bc1a41152)"><path style=" stroke:none;fill-rule:nonzero;fill:#1b75bb;fill-opacity:1;" d="M 258.84375 176.199219 C 260.324219 177.265625 261.628906 178.402344 262.753906 179.601562 L 258.925781 189.746094 C 258.191406 187.238281 256.503906 184.957031 253.871094 183.0625 C 247.519531 178.492188 240.710938 179.789062 235.878906 186.5 L 233.683594 189.550781 L 253.59375 203.875 L 250.535156 211.988281 L 222.066406 191.507812 L 229.140625 181.621094 C 237.007812 170.644531 248.261719 168.585938 258.84375 176.199219 Z M 270.15625 159.988281 L 273.78125 150.375 L 273.78125 150.371094 L 263.972656 133.207031 L 258.722656 140.507812 Z M 241.011719 165.125 L 266.3125 170.175781 L 269.113281 162.746094 L 246.203125 157.910156 Z M 264.929688 131.878906 L 271.683594 136.738281 L 277.691406 128.386719 L 281.140625 130.867188 L 284.222656 122.707031 L 282.609375 121.546875 L 286.914062 115.566406 L 287.972656 112.761719 L 281.851562 108.355469 Z M 264.929688 131.878906 "/></g></g></g><g clip-rule="nonzero" clip-path="url(#e2c205e634)"><g clip-rule="nonzero" clip-path="url(#8412373279)"><g clip-rule="nonzero" clip-path="url(#4991bbb402)"><path style=" stroke:none;fill-rule:nonzero;fill:#1b75bb;fill-opacity:1;" d="M 286.914062 115.566406 L 288.605469 113.214844 L 287.972656 112.761719 Z M 286.914062 115.566406 "/></g></g></g><g clip-rule="nonzero" clip-path="url(#39d764e21b)"><g clip-rule="nonzero" clip-path="url(#58bad9ecea)"><g clip-rule="nonzero" clip-path="url(#1de1fba057)"><path style=" stroke:none;fill-rule:nonzero;fill:#5fc6f2;fill-opacity:1;" d="M 286.238281 124.15625 L 311.792969 142.539062 L 306.875 149.378906 L 288.585938 136.222656 L 279.953125 159.101562 L 289.335938 175.527344 L 289.152344 175.78125 L 274.742188 172.90625 L 269.058594 187.96875 C 271.171875 193.984375 269.886719 200.792969 265.078125 207.476562 L 257.976562 217.34375 L 252.550781 213.441406 L 255.609375 205.328125 L 260.941406 191.199219 L 260.941406 191.195312 L 264.769531 181.050781 L 268.328125 171.621094 L 271.128906 164.195312 L 272.171875 161.4375 L 275.796875 151.824219 L 275.796875 151.820312 L 283.15625 132.3125 Z M 286.238281 124.15625 "/></g></g></g></g></svg>