<?xml version="1.0" encoding="utf-8"?>
<!-- Generator: Adobe Illustrator 24.2.1, SVG Export Plug-In . SVG Version: 6.00 Build 0)  -->
<svg version="1.1" id="Layer_1" xmlns="http://www.w3.org/2000/svg" xmlns:xlink="http://www.w3.org/1999/xlink" x="0px" y="0px"
	 viewBox="0 0 119.9 144" style="enable-background:new 0 0 119.9 144;" xml:space="preserve">
<style type="text/css">
	.st0{fill:url(#SVGID_1_);}
	.st1{fill:url(#SVGID_2_);}
	.st2{opacity:0.43;fill:url(#SVGID_3_);}
	.st3{fill:url(#SVGID_4_);}
	.st4{fill:url(#SVGID_5_);}
	.st5{fill:url(#SVGID_6_);}
	.st6{fill:url(#SVGID_7_);}
	.st7{fill:url(#SVGID_8_);}
	.st8{fill:url(#SVGID_9_);}
	.st9{fill:url(#SVGID_10_);}
	.st10{opacity:0.17;fill:url(#SVGID_11_);}
	.st11{opacity:0.25;fill:url(#SVGID_12_);}
</style>
<linearGradient id="SVGID_1_" gradientUnits="userSpaceOnUse" x1="-52.2906" y1="-474.6584" x2="23.383" y2="-474.6584" gradientTransform="matrix(0.3653 -0.9308 0.9308 0.3653 494.3181 263.6963)">
	<stop  offset="0" style="stop-color:#2A255C"/>
	<stop  offset="0.5" style="stop-color:#672783"/>
	<stop  offset="0.6474" style="stop-color:#652782"/>
	<stop  offset="0.7551" style="stop-color:#60277D"/>
	<stop  offset="0.85" style="stop-color:#562674"/>
	<stop  offset="0.9371" style="stop-color:#4A2568"/>
	<stop  offset="1" style="stop-color:#3F245D"/>
</linearGradient>
<path class="st0" d="M23.8,125c0,0,8.4-3.6,26.2-39.3c4-8,6.7-13.2,10.8-16.8c0,0,6.9-0.5,3.6,10.7c-3.3,11.2-4.5,29.8-4.5,29.8
	s-9.6,20.2-11,21.7c-1.4,1.5-6.3,9-15.5,7.7S23.8,125,23.8,125z"/>
<linearGradient id="SVGID_2_" gradientUnits="userSpaceOnUse" x1="-52.2906" y1="-474.6584" x2="23.383" y2="-474.6584" gradientTransform="matrix(0.3653 -0.9308 0.9308 0.3653 494.3181 263.6963)">
	<stop  offset="0" style="stop-color:#20254B"/>
	<stop  offset="0.1286" style="stop-color:#3C2758;stop-opacity:0.8714"/>
	<stop  offset="0.2955" style="stop-color:#5A2867;stop-opacity:0.7045"/>
	<stop  offset="0.4657" style="stop-color:#732673;stop-opacity:0.5343"/>
	<stop  offset="0.6381" style="stop-color:#86237B;stop-opacity:0.3619"/>
	<stop  offset="0.8143" style="stop-color:#922180;stop-opacity:0.1857"/>
	<stop  offset="1" style="stop-color:#952081;stop-opacity:0"/>
</linearGradient>
<path class="st1" d="M23.8,125c0,0,8.4-3.6,26.2-39.3c4-7.9,6.7-13.2,10.8-16.8c0,0,6.9-0.5,3.6,10.7c-3.3,11.2-4.5,29.8-4.5,29.8
	s-9.6,20.2-11,21.7c-1.4,1.5-6.3,9-15.5,7.7S23.8,125,23.8,125z"/>
<linearGradient id="SVGID_3_" gradientUnits="userSpaceOnUse" x1="-52.2906" y1="-473.3361" x2="10.5017" y2="-473.3361" gradientTransform="matrix(0.3653 -0.9308 0.9308 0.3653 494.3181 263.6963)">
	<stop  offset="0" style="stop-color:#952081;stop-opacity:0"/>
	<stop  offset="1.289326e-02" style="stop-color:#962081;stop-opacity:1.289326e-02"/>
	<stop  offset="0.2279" style="stop-color:#A02985;stop-opacity:0.2279"/>
	<stop  offset="0.4982" style="stop-color:#A52E86;stop-opacity:0.4982"/>
	<stop  offset="1" style="stop-color:#A72F87"/>
</linearGradient>
<path class="st2" d="M48.7,114.1c-10.3,21.4-14,17.4-14,17.4s-4.9-0.6-9.9-1.6c1.1,3.6,3.5,8,8.8,8.8c9.2,1.3,14.1-6.2,15.5-7.7
	c1.4-1.5,11-21.7,11-21.7s0.9-14.9,3.5-26C59.6,90.8,54.5,102,48.7,114.1z"/>
<linearGradient id="SVGID_4_" gradientUnits="userSpaceOnUse" x1="-58.7223" y1="-507.9429" x2="67.4358" y2="-507.9429" gradientTransform="matrix(0.3653 -0.9308 0.9308 0.3653 494.3181 263.6963)">
	<stop  offset="0" style="stop-color:#2271B8"/>
	<stop  offset="0.5" style="stop-color:#3AABE2"/>
	<stop  offset="1" style="stop-color:#71C7D7"/>
</linearGradient>
<path class="st3" d="M2.8,0c0,0,35.2-1,31.9,56.5c-3.5,61.7,4.7,85.4,17.5,69.4c0,0-12.9,26.5-36.8,12.3
	C1.3,129.9,0.6,115.6,0.7,98.4C0.7,98.4,4.9,42.2,2.8,0z"/>
<linearGradient id="SVGID_5_" gradientUnits="userSpaceOnUse" x1="-22.171" y1="-396.1683" x2="-22.171" y2="-436.4348" gradientTransform="matrix(0.3653 -0.9308 0.9308 0.3653 494.3181 263.6963)">
	<stop  offset="0" style="stop-color:#D70953"/>
	<stop  offset="0.5" style="stop-color:#A21A5C"/>
	<stop  offset="1" style="stop-color:#A21A5C"/>
</linearGradient>
<path class="st4" d="M83.2,116.6c0,0,8.4,23.4,36.3,16.6c0.3-0.1,0.4,0.3,0.2,0.5c-3.3,2.1-9,4.9-14.1,6.9
	C90.3,146.4,84.7,127.2,83.2,116.6z"/>
<linearGradient id="SVGID_6_" gradientUnits="userSpaceOnUse" x1="-21.9673" y1="-396.1683" x2="-21.9673" y2="-436.4348" gradientTransform="matrix(0.3653 -0.9308 0.9308 0.3653 494.3181 263.6963)">
	<stop  offset="0" style="stop-color:#D70953"/>
	<stop  offset="0.995" style="stop-color:#3A1E3E"/>
</linearGradient>
<path class="st5" d="M83.2,116.6c0,0,8.4,23.4,36.3,16.6c0.3-0.1,0.4,0.3,0.2,0.5c-3.3,2.1-11.3,6.6-16.3,7.2
	C87.1,142.8,84.7,127.2,83.2,116.6z"/>
<linearGradient id="SVGID_7_" gradientUnits="userSpaceOnUse" x1="-38.3815" y1="-440.9603" x2="32.6304" y2="-440.9603" gradientTransform="matrix(0.3653 -0.9308 0.9308 0.3653 494.3181 263.6963)">
	<stop  offset="0" style="stop-color:#E72273"/>
	<stop  offset="0.5" style="stop-color:#D70953"/>
	<stop  offset="1" style="stop-color:#A21A5C"/>
</linearGradient>
<path class="st6" d="M78.2,65.6c-8.2-5.8-18,3.9-18,3.9c8.7-3.4-3.4,19.5,0.7,47.1c2.9,19.6,17.8,25.2,17.8,25.2l0,0
	c13.2,5.7,26.9-1.3,26.9-1.3C65.9,136.9,93.3,76.5,78.2,65.6z"/>
<linearGradient id="SVGID_8_" gradientUnits="userSpaceOnUse" x1="-38.3815" y1="-440.9603" x2="32.7289" y2="-440.9603" gradientTransform="matrix(0.3653 -0.9308 0.9308 0.3653 494.3181 263.6963)">
	<stop  offset="0" style="stop-color:#E72273;stop-opacity:0"/>
	<stop  offset="0.2209" style="stop-color:#E72871;stop-opacity:0.4418"/>
	<stop  offset="0.5" style="stop-color:#E72A70"/>
	<stop  offset="0.6013" style="stop-color:#E42A6F;stop-opacity:0.7974"/>
	<stop  offset="0.7072" style="stop-color:#DB276C;stop-opacity:0.5856"/>
	<stop  offset="0.8153" style="stop-color:#CB2367;stop-opacity:0.3694"/>
	<stop  offset="0.9242" style="stop-color:#B51E61;stop-opacity:0.1515"/>
	<stop  offset="1" style="stop-color:#A21A5C;stop-opacity:0"/>
</linearGradient>
<path class="st7" d="M78.2,65.6c-8.1-6.2-18,3.9-18,3.9c8.7-3.4-3.4,19.5,0.7,47.1c2.9,19.6,17.8,25.2,17.8,25.2l0,0
	c13.2,5.7,26.9-1.3,26.9-1.3C65.9,136.9,92.8,78.2,78.2,65.6z"/>
<linearGradient id="SVGID_9_" gradientUnits="userSpaceOnUse" x1="-58.7223" y1="-507.9429" x2="65.8812" y2="-507.9429" gradientTransform="matrix(0.3653 -0.9308 0.9308 0.3653 494.3181 263.6963)">
	<stop  offset="0" style="stop-color:#046AB3"/>
	<stop  offset="0.4505" style="stop-color:#198FCF"/>
	<stop  offset="1" style="stop-color:#009AC6"/>
</linearGradient>
<path class="st8" d="M15.3,74.6C20.2,9.1,2.8,0,2.8,0c2.5,37.8-2.1,98.4-2.1,98.4c-0.1,17.9,0.6,31.5,14.6,39.9
	c23.9,14.1,36.8-12.3,36.8-12.3C35.6,155.5,10.1,142.3,15.3,74.6z"/>
<linearGradient id="SVGID_10_" gradientUnits="userSpaceOnUse" x1="-38.3815" y1="-440.9603" x2="29.0044" y2="-440.9603" gradientTransform="matrix(0.3653 -0.9308 0.9308 0.3653 494.3181 263.6963)">
	<stop  offset="0" style="stop-color:#E72273;stop-opacity:0"/>
	<stop  offset="0.2583" style="stop-color:#CF1F6A;stop-opacity:0.2583"/>
	<stop  offset="0.566" style="stop-color:#B71C62;stop-opacity:0.566"/>
	<stop  offset="0.8243" style="stop-color:#A81B5E;stop-opacity:0.8243"/>
	<stop  offset="1" style="stop-color:#A21A5C"/>
</linearGradient>
<path class="st9" d="M73.6,74.9c0.6-9.4-5.5-9.4-6.1-9.4c-4.5,1.4-7.3,4.1-7.3,4.1c8.7-3.4-3.4,19.5,0.7,47.1
	c2.9,19.6,17.8,25.2,17.8,25.2l0,0c13.2,5.7,26.9-1.3,26.9-1.3C59.9,157,73,85.1,73.6,74.9z"/>
<linearGradient id="SVGID_11_" gradientUnits="userSpaceOnUse" x1="-35.675" y1="-440.9603" x2="32.729" y2="-440.9603" gradientTransform="matrix(0.3653 -0.9308 0.9308 0.3653 494.3181 263.6963)">
	<stop  offset="0" style="stop-color:#E72273;stop-opacity:0"/>
	<stop  offset="1.798216e-02" style="stop-color:#E93E7D;stop-opacity:3.596431e-02"/>
	<stop  offset="6.854424e-02" style="stop-color:#EE779C;stop-opacity:0.1371"/>
	<stop  offset="0.1215" style="stop-color:#F3A1B8;stop-opacity:0.2429"/>
	<stop  offset="0.1757" style="stop-color:#F7C1D0;stop-opacity:0.3515"/>
	<stop  offset="0.2317" style="stop-color:#FAD9E2;stop-opacity:0.4634"/>
	<stop  offset="0.2899" style="stop-color:#FDEAF0;stop-opacity:0.5798"/>
	<stop  offset="0.3513" style="stop-color:#FEF6F9;stop-opacity:0.7026"/>
	<stop  offset="0.418" style="stop-color:#FFFDFE;stop-opacity:0.8361"/>
	<stop  offset="0.5" style="stop-color:#FFFFFF"/>
	<stop  offset="0.5596" style="stop-color:#FDFCFC;stop-opacity:0.8808"/>
	<stop  offset="0.6219" style="stop-color:#F8F1F4;stop-opacity:0.7561"/>
	<stop  offset="0.6856" style="stop-color:#EFDFE6;stop-opacity:0.6287"/>
	<stop  offset="0.7503" style="stop-color:#E4C5D1;stop-opacity:0.4995"/>
	<stop  offset="0.8156" style="stop-color:#D5A4B6;stop-opacity:0.3689"/>
	<stop  offset="0.8815" style="stop-color:#C47B96;stop-opacity:0.2371"/>
	<stop  offset="0.9466" style="stop-color:#B24A74;stop-opacity:0.1069"/>
	<stop  offset="1" style="stop-color:#A21A5C;stop-opacity:0"/>
</linearGradient>
<path class="st10" d="M60.2,69.5c0,0,2.8-2.7,7.3-4.1c0.6,0,6.7,0,6.1,9.4c-0.6,10.2-15.3,82.1,32.1,65.6
	c-39.7-3.5-12.9-62.2-27.5-74.8C70.1,59.4,60.2,69.5,60.2,69.5z"/>
<linearGradient id="SVGID_12_" gradientUnits="userSpaceOnUse" x1="-25.2243" y1="-453.7274" x2="40.9387" y2="-568.3251" gradientTransform="matrix(0.3653 -0.9308 0.9308 0.3653 494.3181 263.6963)">
	<stop  offset="0" style="stop-color:#2271B8;stop-opacity:0"/>
	<stop  offset="9.571314e-03" style="stop-color:#2D75BA;stop-opacity:1.914263e-02"/>
	<stop  offset="0.1107" style="stop-color:#799ACE;stop-opacity:0.2215"/>
	<stop  offset="0.2075" style="stop-color:#ADBCDD;stop-opacity:0.415"/>
	<stop  offset="0.2974" style="stop-color:#D1D8E9;stop-opacity:0.5948"/>
	<stop  offset="0.3788" style="stop-color:#EBEDF0;stop-opacity:0.7577"/>
	<stop  offset="0.4491" style="stop-color:#FBFAF4;stop-opacity:0.8981"/>
	<stop  offset="0.5" style="stop-color:#FFFEF5"/>
	<stop  offset="0.6131" style="stop-color:#FEFDF5;stop-opacity:0.7737"/>
	<stop  offset="0.6958" style="stop-color:#F6FAF3;stop-opacity:0.6085"/>
	<stop  offset="0.7687" style="stop-color:#E9F4F0;stop-opacity:0.4627"/>
	<stop  offset="0.836" style="stop-color:#D6ECEB;stop-opacity:0.328"/>
	<stop  offset="0.8994" style="stop-color:#BBE1E5;stop-opacity:0.2011"/>
	<stop  offset="0.9592" style="stop-color:#96D3DE;stop-opacity:8.162302e-02"/>
	<stop  offset="1" style="stop-color:#71C7D7;stop-opacity:0"/>
</linearGradient>
<path class="st11" d="M2.8,0L2.8,0c0,0,17.4,9.1,12.5,74.6c-3.9,51.8,10.1,71.7,24.3,64.9c4.3-2.5,7.6-6.1,9.7-9c1-1.4,2-3,2.9-4.6
	c-12.8,15.9-21-7.7-17.5-69.4C38-1,2.8,0,2.8,0z"/>
</svg>
