<svg xmlns="http://www.w3.org/2000/svg" xmlns:xlink="http://www.w3.org/1999/xlink" width="107" zoomAndPan="magnify" viewBox="0 0 80.25 94.499998" height="126" preserveAspectRatio="xMidYMid meet" version="1.2"><defs><clipPath id="070dc08e7b"><path d="M 0 7.25 L 67 7.25 L 67 58 L 0 58 Z M 0 7.25 "/></clipPath><clipPath id="3e50aeb363"><path d="M 60 7.25 L 79.507812 7.25 L 79.507812 23 L 60 23 Z M 60 7.25 "/></clipPath><clipPath id="2bacc14800"><path d="M 73 7.25 L 79.507812 7.25 L 79.507812 23 L 73 23 Z M 73 7.25 "/></clipPath><clipPath id="158e4875e4"><path d="M 10 26 L 79.507812 26 L 79.507812 93.816406 L 10 93.816406 Z M 10 26 "/></clipPath><clipPath id="e0283a71fc"><path d="M 47 27 L 64 27 L 64 54 L 47 54 Z M 47 27 "/></clipPath><clipPath id="06316f89fd"><path d="M 47.546875 47.984375 L 62.300781 27.476562 L 71.347656 33.984375 L 56.59375 54.492188 Z M 47.546875 47.984375 "/></clipPath><clipPath id="9c173e6c5f"><path d="M 47.546875 47.984375 L 62.300781 27.476562 L 71.347656 33.984375 L 56.59375 54.492188 Z M 47.546875 47.984375 "/></clipPath><clipPath id="792380be58"><path d="M 63 28 L 64 28 L 64 30 L 63 30 Z M 63 28 "/></clipPath><clipPath id="a95f7fc78f"><path d="M 47.546875 47.984375 L 62.300781 27.476562 L 71.347656 33.984375 L 56.59375 54.492188 Z M 47.546875 47.984375 "/></clipPath><clipPath id="c934250501"><path d="M 47.546875 47.984375 L 62.300781 27.476562 L 71.347656 33.984375 L 56.59375 54.492188 Z M 47.546875 47.984375 "/></clipPath><clipPath id="770f4f93d1"><path d="M 55 31 L 70 31 L 70 55 L 55 55 Z M 55 31 "/></clipPath><clipPath id="6ce723c26b"><path d="M 47.546875 47.984375 L 62.300781 27.476562 L 71.347656 33.984375 L 56.59375 54.492188 Z M 47.546875 47.984375 "/></clipPath><clipPath id="35fd3fc8ee"><path d="M 47.546875 47.984375 L 62.300781 27.476562 L 71.347656 33.984375 L 56.59375 54.492188 Z M 47.546875 47.984375 "/></clipPath></defs><g id="6f041acb80"><g clip-rule="nonzero" clip-path="url(#070dc08e7b)"><path style=" stroke:none;fill-rule:nonzero;fill:#336dbf;fill-opacity:1;" d="M 22.4375 44.84375 L 31.269531 57.832031 L 40.429688 44.914062 L 40.429688 22.324219 L 54.871094 22.324219 L 66.519531 7.242188 L 6.792969 7.242188 L -4.855469 22.324219 L 22.4375 22.324219 L 22.4375 44.84375 "/></g><g clip-rule="nonzero" clip-path="url(#3e50aeb363)"><path style=" stroke:none;fill-rule:nonzero;fill:#5fc6f2;fill-opacity:1;" d="M 72.21875 7.242188 L 60.574219 22.324219 L 69.011719 22.324219 L 80.660156 7.242188 L 72.21875 7.242188 "/></g><g clip-rule="nonzero" clip-path="url(#2bacc14800)"><path style=" stroke:none;fill-rule:nonzero;fill:#99def9;fill-opacity:1;" d="M 85.445312 7.242188 L 73.796875 22.324219 L 82.238281 22.324219 L 93.886719 7.242188 L 85.445312 7.242188 "/></g><g clip-rule="nonzero" clip-path="url(#158e4875e4)"><path style=" stroke:none;fill-rule:nonzero;fill:#00adef;fill-opacity:1;" d="M 58.488281 26.742188 L 31.195312 65.21875 L 10.320312 34.519531 L 10.320312 65.699219 L 30.847656 94.921875 L 79.699219 26.742188 L 58.488281 26.742188 "/></g><g clip-rule="nonzero" clip-path="url(#e0283a71fc)"><g clip-rule="nonzero" clip-path="url(#06316f89fd)"><g clip-rule="nonzero" clip-path="url(#9c173e6c5f)"><path style=" stroke:none;fill-rule:nonzero;fill:#1b75bb;fill-opacity:1;" d="M 56.589844 44.246094 C 56.953125 44.507812 57.273438 44.785156 57.550781 45.078125 L 56.609375 47.566406 C 56.429688 46.953125 56.015625 46.390625 55.371094 45.929688 C 53.8125 44.808594 52.140625 45.125 50.957031 46.769531 L 50.417969 47.519531 L 55.300781 51.03125 L 54.550781 53.023438 L 47.570312 48 L 49.304688 45.574219 C 51.234375 42.882812 53.996094 42.378906 56.589844 44.246094 Z M 59.363281 40.269531 L 60.253906 37.910156 L 57.847656 33.699219 L 56.558594 35.492188 Z M 52.214844 41.527344 L 58.421875 42.765625 L 59.109375 40.945312 L 53.488281 39.757812 Z M 58.082031 33.375 L 59.738281 34.566406 L 61.214844 32.515625 L 62.058594 33.125 L 62.816406 31.125 L 62.417969 30.839844 L 63.476562 29.375 L 63.734375 28.683594 L 62.234375 27.605469 Z M 58.082031 33.375 "/></g></g></g><g clip-rule="nonzero" clip-path="url(#792380be58)"><g clip-rule="nonzero" clip-path="url(#a95f7fc78f)"><g clip-rule="nonzero" clip-path="url(#c934250501)"><path style=" stroke:none;fill-rule:nonzero;fill:#1b75bb;fill-opacity:1;" d="M 63.476562 29.375 L 63.890625 28.796875 L 63.734375 28.683594 Z M 63.476562 29.375 "/></g></g></g><g clip-rule="nonzero" clip-path="url(#770f4f93d1)"><g clip-rule="nonzero" clip-path="url(#6ce723c26b)"><g clip-rule="nonzero" clip-path="url(#35fd3fc8ee)"><path style=" stroke:none;fill-rule:nonzero;fill:#5fc6f2;fill-opacity:1;" d="M 63.308594 31.480469 L 69.578125 35.988281 L 68.371094 37.667969 L 63.886719 34.441406 L 61.765625 40.050781 L 64.070312 44.082031 L 64.023438 44.140625 L 60.488281 43.4375 L 59.097656 47.132812 C 59.613281 48.605469 59.296875 50.277344 58.117188 51.917969 L 56.378906 54.335938 L 55.046875 53.378906 L 55.796875 51.390625 L 57.105469 47.925781 L 57.105469 47.921875 L 58.042969 45.433594 L 58.917969 43.121094 L 59.605469 41.300781 L 59.859375 40.625 L 60.75 38.265625 L 62.554688 33.480469 Z M 63.308594 31.480469 "/></g></g></g></g></svg>