<?xml version="1.0" encoding="utf-8"?>
<!-- Generator: Adobe Illustrator 24.2.1, SVG Export Plug-In . SVG Version: 6.00 Build 0)  -->
<svg version="1.1" id="Layer_1" xmlns="http://www.w3.org/2000/svg" xmlns:xlink="http://www.w3.org/1999/xlink" x="0px" y="0px"
	 viewBox="0 0 146.1 76.9" style="enable-background:new 0 0 146.1 76.9;" xml:space="preserve">
<style type="text/css">
	.st0{fill:#FFFFFF;}
	.st1{fill:#B2B2B2;}
	.st2{opacity:0.43;fill:#FFFFFF;}
	.st3{fill:#878787;}
	.st4{opacity:0.17;fill:#FFFFFF;}
	.st5{fill:#C6C6C6;}
	.st6{font-family:'LobsterTwo-Bold';}
	.st7{font-size:49.7235px;}
	.st8{font-size:67.915px;}
</style>
<g>
	<g>
		<g>
			<path class="st0" d="M13.7,66.3c0,0,4.5-1.9,13.9-20.9c2.1-4.2,3.6-7,5.8-8.9c0,0,3.7-0.3,1.9,5.7C33.5,48.2,32.9,58,32.9,58
				S27.8,68.7,27,69.5c-0.8,0.8-3.3,4.8-8.2,4.1S13.7,66.3,13.7,66.3z"/>
			<path class="st1" d="M13.7,66.3c0,0,4.5-1.9,13.9-20.9c2.1-4.2,3.6-7,5.8-8.9c0,0,3.7-0.3,1.9,5.7C33.5,48.2,32.9,58,32.9,58
				S27.8,68.7,27,69.5c-0.8,0.8-3.3,4.8-8.2,4.1S13.7,66.3,13.7,66.3z"/>
			<path class="st2" d="M26.8,60.6c-5.5,11.3-7.4,9.2-7.4,9.2s-2.6-0.3-5.2-0.8c0.6,1.9,1.8,4.3,4.7,4.7c4.9,0.7,7.5-3.3,8.2-4.1
				c0.8-0.8,5.9-11.5,5.9-11.5s0.5-7.9,1.8-13.8C32.6,48.2,29.9,54.1,26.8,60.6z"/>
			<path class="st0" d="M2.5,0c0,0,18.7-0.6,16.9,30c-1.9,32.8,2.5,45.3,9.3,36.8c0,0-6.9,14-19.5,6.5c-7.5-4.4-7.8-12-7.8-21.2
				C1.4,52.2,3.6,22.4,2.5,0z"/>
			<path class="st0" d="M45.2,61.8c0,0,4.5,12.4,19.3,8.8c0.1,0,0.2,0.2,0.1,0.2c-1.7,1.1-4.8,2.6-7.5,3.6
				C48.9,77.7,45.9,67.5,45.2,61.8z"/>
			<path class="st3" d="M45.2,61.8c0,0,4.5,12.4,19.3,8.8c0.1,0,0.2,0.2,0.1,0.2c-1.7,1.1-6,3.5-8.6,3.8
				C47.2,75.7,45.9,67.5,45.2,61.8z"/>
			<path class="st0" d="M42.5,34.8c-4.4-3.1-9.5,2-9.5,2c4.6-1.8-1.8,10.4,0.4,25c1.5,10.4,9.5,13.4,9.5,13.4l0,0
				c7,3,14.3-0.7,14.3-0.7C36,72.6,50.5,40.6,42.5,34.8z"/>
			<path class="st0" d="M42.5,34.8c-4.3-3.3-9.5,2-9.5,2c4.6-1.8-1.8,10.4,0.4,25c1.5,10.4,9.5,13.4,9.5,13.4l0,0
				c7,3,14.3-0.7,14.3-0.7C36,72.6,50.3,41.5,42.5,34.8z"/>
			<path class="st0" d="M9.1,39.6C11.7,4.8,2.5,0,2.5,0c1.3,20.1-1.1,52.2-1.1,52.2c0,9.5,0.3,16.7,7.8,21.2
				c12.7,7.5,19.5-6.5,19.5-6.5C19.9,82.5,6.4,75.5,9.1,39.6z"/>
			<path class="st0" d="M40.1,39.7c0.3-5-2.9-5-3.2-5c-2.4,0.7-3.9,2.1-3.9,2.1c4.6-1.8-1.8,10.4,0.4,25c1.5,10.4,9.5,13.4,9.5,13.4
				l0,0c7,3,14.3-0.7,14.3-0.7C32.8,83.3,39.7,45.1,40.1,39.7z"/>
			<path class="st4" d="M33,36.9c0,0,1.5-1.4,3.9-2.1c0.3,0,3.5,0,3.2,5c-0.3,5.4-8.1,43.5,17,34.8c-21.1-1.9-6.8-33-14.6-39.7
				C38.2,31.5,33,36.9,33,36.9z"/>
			<path class="st5" d="M2.5,0L2.5,0c0,0,9.3,4.8,6.6,39.6C7,67.1,14.4,77.6,22,74c2.3-1.3,4-3.2,5.2-4.8c0.5-0.7,1-1.6,1.5-2.5
				c-6.8,8.5-11.1-4.1-9.3-36.8C21.2-0.5,2.5,0,2.5,0z"/>
		</g>
	</g>
	<text transform="matrix(1 0 0 1 47.7182 68.083)"><tspan x="0" y="0" class="st0 st6 st7">es</tspan><tspan x="38.6" y="0" class="st0 st6 st8">t</tspan><tspan x="57.8" y="0" class="st0 st6 st7">ia</tspan></text>
</g>
</svg>
