<?xml version="1.0" encoding="utf-8"?>
<!-- Generator: Adobe Illustrator 24.2.1, SVG Export Plug-In . SVG Version: 6.00 Build 0)  -->
<svg version="1.1" id="Layer_1" xmlns="http://www.w3.org/2000/svg" xmlns:xlink="http://www.w3.org/1999/xlink" x="0px" y="0px"
	 viewBox="0 0 70.7 37.5" style="enable-background:new 0 0 70.7 37.5;" xml:space="preserve">
<style type="text/css">
	.st0{fill:#FFFFFF;}
	.st1{opacity:0.3;fill:#B2B2B2;}
	.st2{opacity:0.6;fill:#FFFFFF;}
	.st3{opacity:0.2;fill:#878787;}
	.st4{opacity:0.17;fill:#FFFFFF;}
	.st5{opacity:0.3;fill:#C6C6C6;}
</style>
<g>
	<g>
		<g>
			<path class="st0" d="M6,32.6c0,0,2.2-0.9,6.8-10.2c1-2.1,1.8-3.4,2.8-4.4c0,0,1.8-0.1,0.9,2.8c-0.9,2.9-1.2,7.8-1.2,7.8
				s-2.5,5.3-2.9,5.6c-0.4,0.4-1.6,2.3-4,2S6,32.6,6,32.6z"/>
			<path class="st1" d="M6,32.6c0,0,2.2-0.9,6.8-10.2c1-2.1,1.8-3.4,2.8-4.4c0,0,1.8-0.1,0.9,2.8c-0.9,2.9-1.2,7.8-1.2,7.8
				s-2.5,5.3-2.9,5.6c-0.4,0.4-1.6,2.3-4,2S6,32.6,6,32.6z"/>
			<path class="st2" d="M12.5,29.8c-2.7,5.6-3.7,4.5-3.7,4.5s-1.3-0.2-2.6-0.4c0.3,0.9,0.9,2.1,2.3,2.3c2.4,0.3,3.7-1.6,4-2
				c0.4-0.4,2.9-5.6,2.9-5.6s0.2-3.9,0.9-6.8C15.3,23.7,14,26.6,12.5,29.8z"/>
			<path class="st0" d="M0.5,0c0,0,9.2-0.3,8.3,14.7C7.9,30.8,10.1,37,13.4,32.8c0,0-3.4,6.9-9.6,3.2C0.1,33.9,0,30.1,0,25.7
				C0,25.7,1.1,11,0.5,0z"/>
			<path class="st0" d="M21.5,30.4c0,0,2.2,6.1,9.5,4.3c0.1,0,0.1,0.1,0.1,0.1c-0.9,0.5-2.4,1.3-3.7,1.8
				C23.4,38.2,21.9,33.2,21.5,30.4z"/>
			<path class="st3" d="M21.5,30.4c0,0,2.2,6.1,9.5,4.3c0.1,0,0.1,0.1,0.1,0.1c-0.9,0.5-2.9,1.7-4.2,1.9
				C22.5,37.2,21.9,33.2,21.5,30.4z"/>
			<path class="st0" d="M20.2,17.1c-2.1-1.5-4.7,1-4.7,1c2.3-0.9-0.9,5.1,0.2,12.3c0.8,5.1,4.6,6.6,4.6,6.6l0,0c3.5,1.5,7-0.3,7-0.3
				C17,35.7,24.1,19.9,20.2,17.1z"/>
			<path class="st0" d="M20.2,17.1c-2.1-1.6-4.7,1-4.7,1c2.3-0.9-0.9,5.1,0.2,12.3c0.8,5.1,4.6,6.6,4.6,6.6l0,0c3.5,1.5,7-0.3,7-0.3
				C17,35.7,24,20.4,20.2,17.1z"/>
			<path class="st0" d="M3.8,19.5C5.1,2.4,0.5,0,0.5,0C1.2,9.9,0,25.7,0,25.7c0,4.7,0.1,8.2,3.8,10.4c6.2,3.7,9.6-3.2,9.6-3.2
				C9.1,40.6,2.5,37.1,3.8,19.5z"/>
			<path class="st0" d="M19,19.5c0.1-2.5-1.4-2.5-1.6-2.5c-1.2,0.4-1.9,1.1-1.9,1.1c2.3-0.9-0.9,5.1,0.2,12.3
				c0.8,5.1,4.6,6.6,4.6,6.6l0,0c3.5,1.5,7-0.3,7-0.3C15.4,40.9,18.9,22.2,19,19.5z"/>
			<path class="st4" d="M15.5,18.1c0,0,0.7-0.7,1.9-1.1c0.2,0,1.7,0,1.6,2.5c-0.2,2.7-4,21.4,8.4,17.1C17,35.7,24,20.4,20.2,17.1
				C18.1,15.5,15.5,18.1,15.5,18.1z"/>
			<path class="st5" d="M0.5,0L0.5,0c0,0,4.5,2.4,3.2,19.5c-1,13.5,2.6,18.7,6.3,16.9c1.1-0.6,2-1.6,2.5-2.3
				c0.3-0.4,0.5-0.8,0.8-1.2c-3.3,4.2-5.5-2-4.6-18.1C9.7-0.3,0.5,0,0.5,0z"/>
		</g>
	</g>
	<g>
		<path class="st0" d="M33.3,29.1h0.8c-0.9,2.2-2.5,4.5-5.8,4.5c-2.8,0-4.8-1.6-4.8-5.6c0-2.8,1.1-6.9,5.2-6.9
			c3.1,0,3.2,2.3,3.2,2.8c0,2.9-2.4,4.4-4.8,4.6c0,2.2,0.6,3,2.4,3C31.5,31.6,32.4,30.5,33.3,29.1z M29.1,22.4c-1.1,0-1.9,2.3-2,4.9
			c1.6-0.1,2.9-1.6,2.9-3.4C30,22.9,29.5,22.4,29.1,22.4z"/>
		<path class="st0" d="M39,20.5c1.6,6.3,2.1,7.3,2.1,9.7c0,2.6-2.3,3.4-4.1,3.4c-2.9,0-4.3-2-4.3-3.6c0-0.9,0.4-1.5,0.9-1.8
			c0.9-2.4,1.6-4.8,1.9-7.2L39,20.5z M34.7,30.3c-0.2,0-0.6-0.1-0.7-0.3c0.2,1.1,0.8,1.7,1.9,1.7c0.9,0,1.7-0.4,1.7-1.7
			c0-1.7-0.3-2.5-1.3-6.2c-0.3,1.5-0.8,3-1.3,4.5c0.4,0.2,0.7,0.5,0.7,1C35.6,29.8,35.3,30.3,34.7,30.3z"/>
		<path class="st0" d="M48.3,11.5v5.3h2v1.3h-2v10c0,1.9,0.4,2.3,1.7,2.3c0.5,0,0.8-0.1,0.9-0.3c0,0.2,0,0.5,0,0.7
			c0,1.8-1.2,2.8-2.9,2.8c-3.4,0-4.6-2.1-4.6-5.2V18.1h-1.1v-1.3h1.1v-4.6L48.3,11.5z"/>
		<path class="st0" d="M54,16c1.1,0,2,0.9,2,2c0,1.1-0.9,1.9-2,1.9c-1.1,0-1.9-0.9-1.9-1.9C52.1,16.9,52.9,16,54,16z M55.8,21.2v8.3
			c0,1.4,0.3,1.7,1.3,1.7s1.6-0.9,1.7-2.2h1c-0.5,4-2.8,4.5-4.2,4.5c-2.5,0-3.4-1.5-3.4-3.8v-8.6H55.8z"/>
		<path class="st0" d="M68.9,21.2v8.3c0,1.4,0.3,1.7,1.3,1.7c0.2,0,0.3,0,0.5-0.1c-0.3,1.8-0.7,2.5-2.1,2.5c-1.6,0-2.4-0.9-2.7-2.2
			c-0.5,1.1-1.4,2.2-3.2,2.2c-2.1,0-4.3-1.4-4.3-5.7c0-3,1.3-6.8,4.7-6.8c0.8,0,1.9,0.1,2.3,1.3v-1.2H68.9z M62,27.7
			c0,3.5,1.2,3.5,1.8,3.5c0.7,0,1.6-0.7,1.6-2.1v-5.5c-0.1-0.3-0.4-0.9-1.2-0.9C62.6,22.6,62,25.6,62,27.7z"/>
	</g>
</g>
<g>
</g>
<g>
</g>
<g>
</g>
<g>
</g>
<g>
</g>
<g>
</g>
</svg>
