<svg xml:space="preserve" width="512" height="512" xmlns="http://www.w3.org/2000/svg"><linearGradient id="a" gradientUnits="userSpaceOnUse" x1="-52.291" y1="-474.658" x2="23.383" y2="-474.658" gradientTransform="rotate(-68.572 1337.064 -695.33) scale(2.85608)"><stop offset="0" style="stop-color:#2a255c"/><stop offset=".5" style="stop-color:#672783"/><stop offset=".647" style="stop-color:#652782"/><stop offset=".755" style="stop-color:#60277d"/><stop offset=".85" style="stop-color:#562674"/><stop offset=".937" style="stop-color:#4a2568"/><stop offset="1" style="stop-color:#3f245d"/></linearGradient><path d="M151.89 407.196s23.994-10.283 74.837-112.255c11.426-22.851 19.138-37.704 30.849-47.987 0 0 19.709-1.428 10.283 30.563s-12.854 85.12-12.854 85.12-27.42 57.698-31.42 61.983c-3.999 4.284-17.995 25.707-44.273 21.994-26.279-3.714-27.422-39.418-27.422-39.418z" style="fill:url(#a);stroke-width:2.85636"/><linearGradient id="b" gradientUnits="userSpaceOnUse" x1="-52.291" y1="-474.658" x2="23.383" y2="-474.658" gradientTransform="rotate(-68.572 1337.064 -695.33) scale(2.85608)"><stop offset="0" style="stop-color:#20254b"/><stop offset=".129" style="stop-color:#3c2758;stop-opacity:.8714"/><stop offset=".295" style="stop-color:#5a2867;stop-opacity:.7045"/><stop offset=".466" style="stop-color:#732673;stop-opacity:.5343"/><stop offset=".638" style="stop-color:#86237b;stop-opacity:.3619"/><stop offset=".814" style="stop-color:#922180;stop-opacity:.1857"/><stop offset="1" style="stop-color:#952081;stop-opacity:0"/></linearGradient><path d="M151.89 407.196s23.994-10.283 74.837-112.255c11.426-22.566 19.138-37.704 30.849-47.987 0 0 19.709-1.428 10.283 30.563s-12.854 85.12-12.854 85.12-27.42 57.698-31.42 61.983c-3.999 4.284-17.995 25.707-44.273 21.994-26.279-3.714-27.422-39.418-27.422-39.418z" style="fill:url(#b);stroke-width:2.85636"/><linearGradient id="c" gradientUnits="userSpaceOnUse" x1="-52.291" y1="-473.336" x2="10.502" y2="-473.336" gradientTransform="rotate(-68.572 1337.064 -695.33) scale(2.85608)"><stop offset="0" style="stop-color:#952081;stop-opacity:0"/><stop offset=".013" style="stop-color:#962081;stop-opacity:1.289326e-02"/><stop offset=".228" style="stop-color:#a02985;stop-opacity:.2279"/><stop offset=".498" style="stop-color:#a52e86;stop-opacity:.4982"/><stop offset="1" style="stop-color:#a72f87"/></linearGradient><path d="M223.014 376.061c-29.42 61.127-39.99 49.701-39.99 49.701s-13.995-1.714-28.277-4.57c3.142 10.283 9.997 22.85 25.136 25.136 26.278 3.713 40.275-17.71 44.273-21.994 4-4.285 31.42-61.983 31.42-61.983s2.571-42.56 9.998-74.266c-11.426 21.423-25.993 53.414-42.56 87.976z" style="opacity:.43;fill:url(#c);stroke-width:2.85636"/><linearGradient id="d" gradientUnits="userSpaceOnUse" x1="-58.722" y1="-507.943" x2="67.436" y2="-507.943" gradientTransform="rotate(-68.572 1337.064 -695.33) scale(2.85608)"><stop offset="0" style="stop-color:#2271b8"/><stop offset=".5" style="stop-color:#3aabe2"/><stop offset="1" style="stop-color:#71c7d7"/></linearGradient><path d="M91.907 50.15s100.544-2.856 91.118 161.385c-9.997 176.237 13.425 243.933 49.986 198.232 0 0-36.847 75.693-105.114 35.133-40.275-23.708-42.274-64.554-41.989-113.684 0 0 11.997-160.527 5.999-281.066z" style="fill:url(#d);stroke-width:2.85636"/><linearGradient id="e" gradientUnits="userSpaceOnUse" x1="-22.171" y1="-396.168" x2="-22.171" y2="-436.435" gradientTransform="rotate(-68.572 1337.064 -695.33) scale(2.85608)"><stop offset="0" style="stop-color:#d70953"/><stop offset=".5" style="stop-color:#a21a5c"/><stop offset="1" style="stop-color:#a21a5c"/></linearGradient><path d="M321.559 383.202s23.993 66.84 103.686 47.416c.856-.286 1.142.857.57 1.428-9.425 5.999-25.706 13.996-40.274 19.71-43.702 16.566-59.698-38.276-63.982-68.554z" style="fill:url(#e);stroke-width:2.85636"/><linearGradient id="f" gradientUnits="userSpaceOnUse" x1="-21.967" y1="-396.168" x2="-21.967" y2="-436.435" gradientTransform="rotate(-68.572 1337.064 -695.33) scale(2.85608)"><stop offset="0" style="stop-color:#d70953"/><stop offset=".995" style="stop-color:#3a1e3e"/></linearGradient><path d="M321.559 383.202s23.993 66.84 103.686 47.416c.856-.286 1.142.857.57 1.428-9.425 5.999-32.276 18.852-46.558 20.566-46.559 5.427-53.414-39.132-57.698-69.41z" style="fill:url(#f);stroke-width:2.85636"/><linearGradient id="g" gradientUnits="userSpaceOnUse" x1="-38.382" y1="-440.96" x2="32.63" y2="-440.96" gradientTransform="rotate(-68.572 1337.064 -695.33) scale(2.85608)"><stop offset="0" style="stop-color:#e72273"/><stop offset=".5" style="stop-color:#d70953"/><stop offset="1" style="stop-color:#a21a5c"/></linearGradient><path d="M307.277 237.528c-23.423-16.567-51.415 11.14-51.415 11.14 24.85-9.712-9.712 55.699 2 134.534 8.283 55.985 50.843 71.98 50.843 71.98 37.704 16.282 76.836-3.713 76.836-3.713-113.398-10.282-35.133-182.807-78.264-213.941Z" style="fill:url(#g);stroke-width:2.85636"/><linearGradient id="h" gradientUnits="userSpaceOnUse" x1="-38.382" y1="-440.96" x2="32.729" y2="-440.96" gradientTransform="rotate(-68.572 1337.064 -695.33) scale(2.85608)"><stop offset="0" style="stop-color:#e72273;stop-opacity:0"/><stop offset=".221" style="stop-color:#e72871;stop-opacity:.4418"/><stop offset=".5" style="stop-color:#e72a70"/><stop offset=".601" style="stop-color:#e42a6f;stop-opacity:.7974"/><stop offset=".707" style="stop-color:#db276c;stop-opacity:.5856"/><stop offset=".815" style="stop-color:#cb2367;stop-opacity:.3694"/><stop offset=".924" style="stop-color:#b51e61;stop-opacity:.1515"/><stop offset="1" style="stop-color:#a21a5c;stop-opacity:0"/></linearGradient><path d="M307.277 237.528c-23.137-17.71-51.415 11.14-51.415 11.14 24.85-9.712-9.712 55.699 2 134.534 8.283 55.985 50.843 71.98 50.843 71.98 37.704 16.282 76.836-3.713 76.836-3.713-113.398-10.282-36.561-177.951-78.264-213.941Z" style="fill:url(#h);stroke-width:2.85636"/><linearGradient id="i" gradientUnits="userSpaceOnUse" x1="-58.722" y1="-507.943" x2="65.881" y2="-507.943" gradientTransform="rotate(-68.572 1337.064 -695.33) scale(2.85608)"><stop offset="0" style="stop-color:#046ab3"/><stop offset=".451" style="stop-color:#198fcf"/><stop offset="1" style="stop-color:#009ac6"/></linearGradient><path d="M127.611 263.235C141.608 76.143 91.907 50.15 91.907 50.15c7.14 107.97-5.999 281.066-5.999 281.066-.285 51.13 1.714 89.976 41.703 113.97 68.267 40.274 105.115-35.134 105.115-35.134-47.13 84.263-119.968 46.559-105.115-146.817z" style="fill:url(#i);stroke-width:2.85636"/><linearGradient id="j" gradientUnits="userSpaceOnUse" x1="-38.382" y1="-440.96" x2="29.004" y2="-440.96" gradientTransform="rotate(-68.572 1337.064 -695.33) scale(2.85608)"><stop offset="0" style="stop-color:#e72273;stop-opacity:0"/><stop offset=".258" style="stop-color:#cf1f6a;stop-opacity:.2583"/><stop offset=".566" style="stop-color:#b71c62;stop-opacity:.566"/><stop offset=".824" style="stop-color:#a81b5e;stop-opacity:.8243"/><stop offset="1" style="stop-color:#a21a5c"/></linearGradient><path d="M294.137 264.092c1.714-26.85-15.71-26.85-17.423-26.85-12.854 3.999-20.852 11.711-20.852 11.711 24.85-9.711-9.712 55.7 2 134.535 8.283 55.985 50.843 71.98 50.843 71.98 37.704 16.282 76.836-3.713 76.836-3.713-130.536 46.844-93.117-158.528-91.404-187.663z" style="fill:url(#j);stroke-width:2.85636"/><linearGradient id="k" gradientUnits="userSpaceOnUse" x1="-35.675" y1="-440.96" x2="32.729" y2="-440.96" gradientTransform="rotate(-68.572 1337.064 -695.33) scale(2.85608)"><stop offset="0" style="stop-color:#e72273;stop-opacity:0"/><stop offset=".018" style="stop-color:#e93e7d;stop-opacity:3.596431e-02"/><stop offset=".069" style="stop-color:#ee779c;stop-opacity:.1371"/><stop offset=".121" style="stop-color:#f3a1b8;stop-opacity:.2429"/><stop offset=".176" style="stop-color:#f7c1d0;stop-opacity:.3515"/><stop offset=".232" style="stop-color:#fad9e2;stop-opacity:.4634"/><stop offset=".29" style="stop-color:#fdeaf0;stop-opacity:.5798"/><stop offset=".351" style="stop-color:#fef6f9;stop-opacity:.7026"/><stop offset=".418" style="stop-color:#fffdfe;stop-opacity:.8361"/><stop offset=".5" style="stop-color:#fff"/><stop offset=".56" style="stop-color:#fdfcfc;stop-opacity:.8808"/><stop offset=".622" style="stop-color:#f8f1f4;stop-opacity:.7561"/><stop offset=".686" style="stop-color:#efdfe6;stop-opacity:.6287"/><stop offset=".75" style="stop-color:#e4c5d1;stop-opacity:.4995"/><stop offset=".816" style="stop-color:#d5a4b6;stop-opacity:.3689"/><stop offset=".881" style="stop-color:#c47b96;stop-opacity:.2371"/><stop offset=".947" style="stop-color:#b24a74;stop-opacity:.1069"/><stop offset="1" style="stop-color:#a21a5c;stop-opacity:0"/></linearGradient><path d="M255.862 248.668s7.998-7.713 20.852-11.712c1.713 0 19.137 0 17.423 26.85-1.713 29.135-43.702 234.508 91.69 187.378-113.398-9.997-36.847-177.666-78.55-213.656-23.137-17.71-51.415 11.14-51.415 11.14z" style="opacity:.17;fill:url(#k);stroke-width:2.85636"/><linearGradient id="l" gradientUnits="userSpaceOnUse" x1="-25.224" y1="-453.727" x2="40.939" y2="-568.325" gradientTransform="rotate(-68.572 1337.064 -695.33) scale(2.85608)"><stop offset="0" style="stop-color:#2271b8;stop-opacity:0"/><stop offset=".01" style="stop-color:#2d75ba;stop-opacity:1.914263e-02"/><stop offset=".111" style="stop-color:#799ace;stop-opacity:.2215"/><stop offset=".207" style="stop-color:#adbcdd;stop-opacity:.415"/><stop offset=".297" style="stop-color:#d1d8e9;stop-opacity:.5948"/><stop offset=".379" style="stop-color:#ebedf0;stop-opacity:.7577"/><stop offset=".449" style="stop-color:#fbfaf4;stop-opacity:.8981"/><stop offset=".5" style="stop-color:#fffef5"/><stop offset=".613" style="stop-color:#fefdf5;stop-opacity:.7737"/><stop offset=".696" style="stop-color:#f6faf3;stop-opacity:.6085"/><stop offset=".769" style="stop-color:#e9f4f0;stop-opacity:.4627"/><stop offset=".836" style="stop-color:#d6eceb;stop-opacity:.328"/><stop offset=".899" style="stop-color:#bbe1e5;stop-opacity:.2011"/><stop offset=".959" style="stop-color:#96d3de;stop-opacity:8.162302e-02"/><stop offset="1" style="stop-color:#71c7d7;stop-opacity:0"/></linearGradient><path d="M91.907 50.15s49.7 25.993 35.704 213.085c-11.14 147.96 28.85 204.801 69.41 185.378 12.282-7.14 21.708-17.424 27.707-25.707 2.856-4 5.712-8.57 8.283-13.14-36.561 45.417-59.983-21.994-49.986-198.231C192.45 47.294 91.907 50.15 91.907 50.15Z" style="opacity:.25;fill:url(#l);stroke-width:2.85636"/></svg>