<svg xmlns="http://www.w3.org/2000/svg" viewBox="0 0 67 44"><path d="M62.2 44H51.39s-1.13-2.41-1.6-3.26c-.45-.86-1.55-.82-1.55-.82H18.85s-1.07-.14-1.6.82c-.57.95-1.63 3.26-1.63 3.26H4.97A4.47 4.47 0 0 1 .5 39.56V4.47A4.47 4.47 0 0 1 4.94 0h57.23a4.47 4.47 0 0 1 4.47 4.44v35.09A4.44 4.44 0 0 1 62.21 44Z" fill="#009486"/><path d="M18.45 9.51h30.2a9.34 9.34 0 0 1 9.4 9.44c0 5.18-4.22 9.4-9.4 9.4h-30.2a9.42 9.42 0 0 1 0-18.84Z" fill="#E7F9E4"/><path d="M46.27 15.36a4.61 4.61 0 0 0-3.64 7.46s1.58-1.18 3.8-1.18c1.66 0 3.6 1.01 3.6 1.01a4.61 4.61 0 0 0-3.76-7.29Zm-25.54 0a4.61 4.61 0 0 0-3.77 7.3s1.94-1.02 3.6-1.02c2.23 0 3.8 1.18 3.8 1.18a4.61 4.61 0 0 0-3.64-7.45Z" fill="#009486"/></svg>