<svg xmlns="http://www.w3.org/2000/svg" xml:space="preserve" style="fill-rule:evenodd;clip-rule:evenodd;stroke-linejoin:round;stroke-miterlimit:2" viewBox="0 0 2778 2778"><path d="M0-666.667c184.095 0 333.333 149.238 333.333 333.333S184.095 0 0 0s-333.333-149.239-333.333-333.334S-184.095-666.667 0-666.667m0 20c-42.308 0-83.341 8.282-121.957 24.615a313.4 313.4 0 0 0-53.217 28.885 315.7 315.7 0 0 0-46.386 38.273 315.7 315.7 0 0 0-38.273 46.386 313.4 313.4 0 0 0-28.885 53.217c-16.333 38.616-24.615 79.649-24.615 121.957 0 42.309 8.282 83.341 24.615 121.957a313.4 313.4 0 0 0 28.885 53.217 315.7 315.7 0 0 0 38.273 46.386 315.7 315.7 0 0 0 46.386 38.273 313.3 313.3 0 0 0 53.217 28.885C-83.341-28.282-42.308-20 0-20c42.309 0 83.341-8.282 121.957-24.616a313.3 313.3 0 0 0 53.217-28.885 315.7 315.7 0 0 0 46.386-38.273 315.7 315.7 0 0 0 38.273-46.386 313.3 313.3 0 0 0 28.885-53.217c16.334-38.616 24.615-79.648 24.615-121.957s-8.281-83.341-24.615-121.957a313.3 313.3 0 0 0-28.885-53.217 315.7 315.7 0 0 0-38.273-46.386 315.7 315.7 0 0 0-46.386-38.273 313.4 313.4 0 0 0-53.217-28.885C83.341-638.385 42.309-646.667 0-646.667m4.88 337.62L90.256-75.133c.565 1.378 1.25 2.64 1.993 3.828C63.379-61.139 32.347-55.556 0-55.556a277.6 277.6 0 0 1-78.476-11.318zm238.879-157.554c21.677 39.561 34.019 84.963 34.019 133.257 0 102.476-55.537 191.945-138.12 240.091l84.839-245.297c15.85-39.626 21.129-71.313 21.129-99.49 0-10.224-.674-19.715-1.867-28.561m-521.537 133.257c0-40.272 8.64-78.502 24.053-113.045l132.507 363.034c-92.67-45.021-156.56-140.044-156.56-249.989m465.301-14.009c0 23.768-7.464 51.883-20.195 91.566l-28.656 90.801L38.286-463.578c16.722-.876 31.79-2.639 31.79-2.639 14.966-1.769 13.204-23.768-1.77-22.891 0 0-44.994 3.531-74.042 3.531-27.293 0-73.156-3.531-73.156-3.531-14.982-.877-16.736 22.007-1.762 22.891 0 0 14.168 1.763 29.134 2.639l43.275 118.574-60.797 182.31-101.15-300.884c16.736-.876 31.789-2.639 31.789-2.639 14.959-1.769 13.19-23.768-1.776-22.891 0 0-44.987 3.531-74.035 3.531-5.21 0-11.355-.13-17.877-.337C-182.421-561.316-97.049-611.111 0-611.111c72.316 0 138.16 27.647 187.581 72.929-1.197-.076-2.364-.224-3.597-.224-27.286 0-46.647 23.768-46.647 49.298 0 22.891 13.205 42.258 27.287 65.15 10.564 18.497 22.899 42.265 22.899 76.605" style="fill:#32373c" transform="translate(1388.888 2777.78)scale(4.16667)"/></svg>