<?xml version="1.0"?>
<svg xmlns="http://www.w3.org/2000/svg" xmlns:xlink="http://www.w3.org/1999/xlink" viewBox="0 0 593.208 593.2">
	<defs>
		<linearGradient id="a" x1="509.701" y1="509.746" x2="90.241" y2="90.286" gradientUnits="userSpaceOnUse">
			<stop offset="0" stop-color="#3ebca6"/>
			<stop offset="0.5" stop-color="#057f99"/>
			<stop offset="1" stop-color="#006b81"/>
		</linearGradient>
	</defs>
	<title>classicpress-logo-coin-white-on-gradient</title>
	<path d="M299.972,3.416c-163.811,0-296.6,132.789-296.6,296.6s132.792,296.6,296.6,296.6,296.6-132.789,296.6-296.6S463.777,3.416,299.972,3.416Z" transform="translate(-3.369 -3.416)" style="fill:url(#a)"/>
	<path d="M465.4,133.879l-.016-.024a7.53,7.53,0,0,0-6.244-3.174C416.4,132.923,347.558,158.142,344.651,159.2a7,7,0,0,0-3.85,3.459l-9.7,19.37-7.155-7.144a6.976,6.976,0,0,0-8.223-1.253c-8.19,4.277-49.557,26.216-58.36,36.891-5.117,6.184-9.08,19.769-11.745,31.752l-4.686-9.329a6.973,6.973,0,0,0-4.928-3.75,6.815,6.815,0,0,0-5.981,1.616c-2.48,2.162-54.13,48.638-43.373,106.578,41.316-58.907,90.984-108.436,172.223-148.323a7.025,7.025,0,0,1,6.212,12.6c-.008,0-.014.007-.021.007-4.729,2.327-9.312,4.7-13.824,7.088-1.142.605-2.266,1.217-3.394,1.829q-5.193,2.808-10.209,5.672c-1.088.618-2.173,1.231-3.244,1.857q-12.927,7.547-24.694,15.506c-.651.441-1.284.889-1.931,1.338q-5.13,3.512-10.056,7.095c-.576.427-1.152.839-1.729,1.266-76.659,56.561-117.218,128.206-165.822,214.156a7.022,7.022,0,0,0,2.662,9.564,6.9,6.9,0,0,0,3.451.911h.007a7.016,7.016,0,0,0,6.116-3.573c19.353-34.228,37.41-66.123,57.012-95.67,7.76,9.593,18.851,14.631,32.667,14.631,53.137,0,140.887-77.737,149.728-102.758a7.022,7.022,0,0,0-4.921-9.151l-23.419-5.864,50.987-8.5a7,7,0,0,0,5.125-3.8L465.8,140.857A7.488,7.488,0,0,0,465.4,133.879Z" transform="translate(-3.369 -3.416)" style="fill:#fff"/>
</svg>
