<svg xmlns="http://www.w3.org/2000/svg" width="485.333" height="485.333" viewBox="0 0 364 364"><title>PrestaShop logo</title><path d="M100 189.5V307l30.8-.2 30.7-.3.3-33.6.2-33.7 23.8-.4c21.6-.5 24.6-.7 33.6-3.1 29.2-7.8 50.1-26.7 59.8-54 15-42.3-8.8-89.6-52.3-104.1-15.6-5.2-21-5.6-76-5.6H100zm111-75v5.4l5.8.3 5.7.3.3 5.7.3 5.8H186v12h11.9l.3 5.7.3 5.8 6.3.3 6.2.3V167h12v22.9l-5.7.3-5.8.3-.5 5.5-.5 5.5-24.7.3-24.7.2-.3-5.7-.3-5.8-5.7-.3-5.8-.3V179h37v-12h-11.9l-.3-5.8-.3-5.7-6.2-.3-6.3-.3V144h-12.1l.3-11.8.3-11.7 5.8-.3 5.7-.3V109h50z"/></svg>