<svg xmlns="http://www.w3.org/2000/svg" stroke-linejoin="round" stroke-miterlimit="1.414" clip-rule="evenodd" viewBox="0 0 381 79"><title>Joomla logo</title><g fill="#3b3a40"><path d="M119 17.3v31.3c0 2.8.2 5.4-2.3 7.3-2.3 1.9-6.2 2.5-10.4 2.5-6.4 0-13.2-1.5-13.2-1.5l-1.5 4s9.5 2 16.4 2.1c5.8.1 10.9-1.2 13.7-4.4 2.3-2.6 3-5.6 2.9-10.7V17.3zM165.7 34.6c-4.2-2.3-9.3-3.5-15.1-3.5-5.7 0-10.8 1.2-15.1 3.5-5.4 2.9-8.1 7.2-8.1 12.6s2.7 9.7 8.1 12.6c4.3 2.3 9.3 3.5 15.1 3.5 5.7 0 10.8-1.2 15-3.5 5.4-2.9 8.1-7.2 8.1-12.6 0-5.5-2.7-9.7-8-12.6m-3.3 22c-3.3 1.9-7.2 2.8-11.8 2.8-4.7 0-8.7-.9-11.9-2.7-3.9-2.2-5.8-5.3-5.8-9.5 0-4.1 2-7.3 5.8-9.5 3.2-1.8 7.2-2.7 11.9-2.7 4.6 0 8.6.9 11.9 2.7 3.8 2.2 5.8 5.4 5.8 9.5-.1 4-2 7.2-5.9 9.4M214.9 34.6c-4.2-2.3-9.3-3.5-15.1-3.5-5.7 0-10.8 1.2-15.1 3.5-5.4 2.9-8.1 7.2-8.1 12.6s2.7 9.7 8.1 12.6c4.3 2.3 9.3 3.5 15.1 3.5 5.7 0 10.8-1.2 15-3.5 5.4-2.9 8.1-7.2 8.1-12.6 0-5.5-2.7-9.7-8-12.6m-3.3 22c-3.3 1.9-7.2 2.8-11.8 2.8-4.7 0-8.7-.9-11.9-2.7-3.9-2.2-5.8-5.3-5.8-9.5 0-4.1 2-7.3 5.8-9.5 3.2-1.8 7.2-2.7 11.9-2.7 4.6 0 8.6.9 11.9 2.7 3.8 2.2 5.8 5.4 5.8 9.5-.1 4-2 7.2-5.9 9.4M282.8 33.8c-3-1.8-6.9-2.7-11.5-2.7-5.9 0-10.6 1.8-14.2 5.4-3.4-3.6-8.2-5.4-14.1-5.4-4.8 0-8.7 1-11.7 2.9v-2.5H226v31.1h5.3V41.4c.4-1.5 1.4-2.9 3-4.1 2.2-1.5 5-2.3 8.5-2.3 3.1 0 5.7.6 7.9 1.9 2.6 1.5 3.8 3.5 3.8 6.3v19.6h5.2V43.1c0-2.8 1.2-4.8 3.8-6.3 2.2-1.2 4.9-1.9 8-1.9s5.8.6 8 1.9c2.6 1.5 3.8 3.5 3.8 6.3v19.6h5.3V43.8c-.1-4.4-2.1-7.8-5.8-10M292.7 17.3v45.4h5.3V17.3zM357.1 17.3v35.1h5.3V17.3zM343.2 31.5v5.3c-4.5-3.8-10.5-5.8-17.9-5.8-5.9 0-11 1.1-15.2 3.4-5.2 2.9-7.9 7.1-7.9 12.7 0 5.5 2.7 9.8 8.1 12.6 4.2 2.3 9.3 3.4 15.2 3.4 2.9 0 5.8-.3 8.4-1 3.7-1 6.8-2.4 9.2-4.3v4.8h5.3V31.5zm-35.4 15.7c0-4.1 2-7.3 5.8-9.5 3.2-1.8 7.3-2.7 12-2.7q8.7 0 13.5 4.2 4.2 3.75 4.2 9.6v3.7c-2.2 2.5-5.5 4.4-9.7 5.7-2.5.8-5.2 1.2-8 1.2-4.8 0-8.8-.9-12-2.6-3.9-2.3-5.8-5.4-5.8-9.6M359.8 56.8c-3.7 0-4.2 1.9-4.2 3.1s.6 3.1 4.2 3.1c3.7 0 4.2-2 4.2-3.1s-.6-3.1-4.2-3.1M378.8 22.9c0 3.1-2 5.7-5.6 5.7s-5.6-2.6-5.6-5.7 2-5.7 5.6-5.7 5.6 2.6 5.6 5.7m-10 0c0 2.6 1.6 4.6 4.4 4.6s4.4-2 4.4-4.6-1.6-4.6-4.4-4.6-4.4 2-4.4 4.6m5.5.7c2.2-.4 2-3.7-.5-3.7h-2.7v5.8h1.1v-2h1l1.6 2h1.2v-.2zm-.5-2.7c1.3 0 1.3 1.9 0 1.9h-1.6v-1.9z"/></g><path fill="#7ac143" d="m16 40.2-1.4-1.4c-4.5-4.5-5.8-10.8-4.2-16.5-4.5-1-7.8-5-7.8-9.8 0-5.5 4.5-10 10-10 5 0 9.1 3.6 9.9 8.4 5.4-1.3 11.3.2 15.5 4.4l.6.6-7.4 7.4-.6-.6c-2.4-2.4-6.3-2.4-8.7 0s-2.4 6.3 0 8.7L38.5 48l-7.4 7.4-7.8-7.8z"/><path fill="#f9a541" d="m24.3 32 16.6-16.6c4.4-4.4 10.8-5.8 16.4-4.2.7-4.9 4.9-8.6 9.9-8.6 5.5 0 10 4.5 10 10 0 5.1-3.8 9.3-8.7 9.9 1.6 5.6.2 11.9-4.2 16.3l-.6.6-7.2-7.4.6-.6c2.4-2.4 2.4-6.3 0-8.7s-6.3-2.4-8.7 0L31.8 39.3z"/><path fill="#f44321" d="M57.6 69.3c-5.7 1.7-12.1.4-16.6-4.1l-.6-.6 7.4-7.4.6.6c2.4 2.4 6.3 2.4 8.7 0s2.4-6.3 0-8.7L40.5 32.5l7.4-7.4 16.7 16.7C68.8 46 70.3 52 69 57.5c4.9.7 8.6 4.9 8.6 9.9 0 5.5-4.5 10-10 10-5-.1-9.1-3.6-10-8.1"/><path fill="#5091cd" d="M54.7 48.5 38.1 65.1c-4.3 4.3-10.3 5.7-15.7 4.4-1 4.5-5 7.8-9.8 7.8-5.5 0-10-4.5-10-10 0-4.7 3.3-8.7 7.7-9.7-1.4-5.6 0-11.6 4.3-15.9l.6-.6 7.4 7.4-.6.6c-2.4 2.4-2.4 6.3 0 8.7s6.3 2.4 8.7 0l16.6-16.6z"/></svg>