<svg xmlns="http://www.w3.org/2000/svg" xml:space="preserve" style="fill-rule:evenodd;clip-rule:evenodd;stroke-linejoin:round;stroke-miterlimit:2" viewBox="0 0 136 163"><path d="M155.951 84.448c0 30.976-25.109 56.087-56.084 56.087-30.973 0-56.081-25.111-56.081-56.087 0-30.971 25.107-56.079 56.081-56.079s56.084 25.108 56.084 56.079" style="fill-rule:nonzero" transform="translate(-33.703 -28.369)"/><path d="M124.389 49.119c-5.697.195-10.67 3.34-14.373 7.68-4.1 4.765-6.824 10.411-8.791 16.18-3.514-2.882-6.223-6.611-11.864-8.233-4.359-1.253-8.936-.737-13.146 2.399-1.992 1.489-3.367 3.738-4.02 5.859-1.692 5.498 1.778 10.396 3.354 12.151l3.447 3.691c.709.725 2.422 2.613 1.584 5.319-.9 2.947-4.451 4.85-8.092 3.731-1.627-.499-3.963-1.71-3.439-3.413.215-.699.715-1.225.984-1.821.244-.521.363-.907.438-1.14.665-2.169-.245-4.994-2.57-5.713-2.171-.666-4.391-.138-5.252 2.655-.977 3.174.543 8.935 8.681 11.441 9.535 2.935 17.597-2.259 18.742-9.026.721-4.239-1.195-7.392-4.701-11.441l-2.859-3.163c-1.73-1.729-2.324-4.677-.533-6.942 1.512-1.912 3.664-2.726 7.191-1.768 5.15 1.396 7.443 4.969 11.271 7.851-1.578 5.187-2.613 10.392-3.547 15.059l-.574 3.481c-2.736 14.352-4.826 22.235-10.256 26.76-1.094.779-2.658 1.943-5.014 2.027-1.238.037-1.637-.814-1.654-1.186-.027-.865.703-1.264 1.188-1.652.727-.396 1.824-1.053 1.748-3.156-.078-2.484-2.137-4.639-5.111-4.541-2.229.075-5.625 2.171-5.497 6.011.131 3.967 3.827 6.938 9.401 6.75 2.979-.102 9.633-1.312 16.188-9.105 7.631-8.935 9.766-19.175 11.372-26.671l1.793-9.897c.992.119 2.059.2 3.217.228 9.504.201 14.256-4.72 14.328-8.302.049-2.167-1.42-4.302-3.479-4.251-1.471.041-3.32 1.022-3.762 3.057-.436 1.995 3.023 3.798.32 5.553-1.92 1.242-5.361 2.116-10.209 1.407l.881-4.872c1.799-9.238 4.018-20.6 12.436-20.878.615-.029 2.857.026 2.91 1.512.014.493-.109.623-.689 1.757-.592.884-.814 1.64-.785 2.504.08 2.356 1.873 3.908 4.471 3.818 3.473-.116 4.469-3.496 4.412-5.233-.146-4.085-4.449-6.665-10.14-6.477" style="fill:#fff;fill-rule:nonzero" transform="translate(-33.703 -28.369)"/><path d="M120.689 163.885c5.664 0 9.465 4.094 9.465 9.756 0 5.338-3.873 9.758-9.465 9.758-5.627 0-9.502-4.42-9.502-9.758.001-5.662 3.801-9.756 9.502-9.756m0 16.738c4.018 0 5.809-3.654 5.809-6.982 0-3.543-2.154-6.979-5.809-6.979-3.689 0-5.846 3.436-5.846 6.979.001 3.328 1.79 6.982 5.846 6.982M110.717 165.619v-1.297h-4.934v-1.771c0-2.521.365-4.424 3.324-4.424q.085.001.17.006c.006 0 .006-.008.014-.008.818.061 1.502-.609 1.549-1.43l.061-1.125c-.695-.111-1.428-.221-2.303-.221-5.078 0-6.248 2.961-6.248 7.494v1.479h-4.387v1.447c.111.75.754 1.328 1.537 1.328q.006.002.012.004h2.838v15.859h1.893c.004 0 .002-.002.006-.002.785 0 1.43-.588 1.535-1.346V167.1h3.436a1.55 1.55 0 0 0 1.497-1.481M64.961 164.322c-.007 0-.01.004-.018.004-.725 0-1.426.498-1.731 1.17l-4.728 14.25h-.073l-4.623-14.242c-.302-.676-1.007-1.178-1.735-1.178-.007 0-.01-.004-.018-.004H49.64l6.322 17.396c.221.621.659 1.572.659 1.973 0 .365-1.024 4.605-4.095 4.605-.076 0-.152-.008-.228-.014-.783-.043-1.375.504-1.507 1.346l-.093 1.189c.621.109 1.244.256 2.341.256 4.53 0 5.883-4.131 7.162-7.711l6.871-19.041h-2.111zM43.123 168.109c-2.838-1.451-5.941-2.438-5.996-5.357.009-3.104 2.859-3.918 5.056-3.914q.015-.003.023-.002c.954 0 1.717.094 2.461.258.011 0 .009-.012.021-.012.787.057 1.447-.559 1.541-1.334l.062-1.127a18.2 18.2 0 0 0-4.254-.539c-4.777.029-8.322 2.434-8.334 7.018.006 4.01 2.709 5.562 5.614 6.971 2.851 1.369 5.972 2.502 5.999 5.809-.018 3.453-3.348 4.727-5.644 4.73-1.343-.004-2.801-.34-4.028-.727-.77-.127-1.401.553-1.5 1.451l-.104 1.004c1.688.547 3.419 1.021 5.159 1.021h.022c5.35-.039 9.507-2.172 9.523-7.711-.008-4.275-2.728-6.068-5.621-7.539M95.08 182.961l.004-.002c.742 0 1.359-.518 1.518-1.215v-10.732c0-4.057-1.717-7.127-6.471-7.127-1.68 0-4.492.951-5.771 3.619-.988-2.523-3.143-3.619-5.299-3.619-2.742 0-4.605.986-5.919 3.143h-.074v-1.158a1.56 1.56 0 0 0-1.557-1.543q-.008-.002-.016-.004h-1.644v18.639h1.86l.004-.002c.861 0 1.559-.697 1.559-1.557 0-.023.008-.033.013-.049v-7.783c0-3.473 1.387-6.908 4.895-6.908 2.777 0 3.328 2.887 3.328 5.189v11.109h1.885q.001-.001.006-.002c.812 0 1.471-.623 1.543-1.416v-7.973c0-3.473 1.389-6.908 4.896-6.908 2.777 0 3.326 2.887 3.326 5.189v11.109h1.914zM148.164 182.961q.004-.001.006-.002c.836 0 1.512-.66 1.551-1.486v-9.584c0-5.006-2.158-8.004-6.982-8.004-2.594 0-5.076 1.279-6.102 3.4h-.072v-1.393c0-.002-.004-.002-.004-.006a1.56 1.56 0 0 0-1.557-1.561c-.008 0-.012-.004-.018-.004h-1.75v18.639h1.889s0-.002.004-.002c.816 0 1.48-.633 1.545-1.434v-7.189c0-4.529 1.756-7.674 5.664-7.674 2.998.184 3.945 2.303 3.945 6.65v9.648h1.881zM166.656 164.322c-.006 0-.008.004-.018.004-.723 0-1.426.498-1.73 1.17l-4.725 14.25h-.076l-4.623-14.242c-.303-.676-1.008-1.178-1.736-1.178q-.008-.002-.016-.004h-2.395l6.322 17.396c.219.621.66 1.572.66 1.973 0 .365-1.025 4.605-4.096 4.605-.076 0-.152-.008-.229-.014-.781-.043-1.373.504-1.506 1.346l-.092 1.189c.621.109 1.244.256 2.338.256 4.533 0 5.885-4.131 7.164-7.711l6.871-19.041h-2.113z" style="fill-rule:nonzero" transform="translate(-33.703 -28.369)"/></svg>