<svg xmlns="http://www.w3.org/2000/svg" width="625.57" height="144.4" viewBox="0 0 176.55 40.754"><title>Dolibarr logo</title><g stroke-width=".265"><path fill="#263c5c" d="M90.28 4.132v22.06q0 6.079 2.864 9.902 1.647 2.203 4.178 3.504c1.703.867 3.445 1.144 5.228 1.159 2.894.023 6.707-1.086 8.976-3.84 2.291-2.78 3.653-5.92 3.653-9.795 0-3.787-1.202-7.03-3.605-9.716-2.386-2.69-5.26-4.03-8.617-4.03-.541 0-2.386.06-2.386.06l.066 10.08s1.526.004 2.178.004q1.385 0 2.339 1.115.955 1.088.955 2.708 0 1.566-1.027 2.681-1.002 1.088-2.459 1.089-3.414 0-3.414-5.283V4.142h-8.928zM0 4.391v36.24l9.692.106V14.8h3.271q8.331 0 8.331 7.406c0 5.256-1.707 7.84-7.357 7.87l-2.67.014v10.644c1.32.005 2.381.023 2.971.023 5.01 0 9.03-1.651 12.21-5.12q4.775-5.202 4.776-13.433-.001-8.6-5.585-13.618-4.703-4.194-13.01-4.195zm62.45.024v36.34h8.928V4.415zm-16.02 8.787q-5.395 0-9.07 3.982-3.676 3.955-3.676 9.769 0 5.706 3.676 9.769c2.451 2.69 5.403 4.03 8.857 4.03s6.398-1.345 8.833-4.03q3.676-4.035 3.676-9.769 0-5.655-3.628-9.69-3.604-4.062-8.666-4.061m127.38.424q-4.702 0-7.519 3.425-2.817 3.398-2.817 9.132v14.573h8.928V28.094q0-4.141 2.435-4.141c.509 0 1.703-.02 1.703-.02l.008-10.304zm-15.66 0q-4.703 0-7.52 3.424-2.817 3.398-2.817 9.132v14.573h8.928V28.093q0-4.14 2.434-4.14c.509 0 1.679-.029 1.679-.029V13.628zm-27.977.026q-5.18 0-8.808 4.01-3.604 4.008-3.605 9.77 0 5.92 3.581 9.85c2.386 2.618 5.371 3.476 8.952 3.476h1.947l.041-9.373s-1.376.03-2.155.03q-1.433 0-2.364-1.062-.931-1.061-.931-2.708 0-1.566 1.026-2.708 1.026-1.14 2.435-1.14 1.553 0 2.459 1.246c.621.832.935 1.947.931 3.345l-.033 12.37h8.945l.017-13.09q0-6.504-3.342-10.247-3.32-3.77-9.09-3.77m-53.585.116v26.987h8.928V13.767zm-30.395 9.228q1.456 0 2.459 1.168 1.001 1.142 1 2.814 0 1.645-1.027 2.814-1.002 1.169-2.434 1.168-1.409 0-2.435-1.168-1.001-1.169-1-2.814.001-1.672 1-2.814 1.002-1.168 2.435-1.168"/><g fill="#007b8c"><path d="m153.43-.041-2.088 9.501h.713l2.083-9.501h-.707m4.608 0q-.952 0-1.749.558-.79.551-1.223 1.623-.428 1.066-.428 2.5 0 1.316.378 2.463.384 1.147 1.111 1.755.732.601 1.896.601 1.125 0 1.901-.783.781-.79 1.081-2.288l-.953-.307q-.197 1.16-.752 1.748c-.555.588-.822.589-1.356.589q-.659 0-1.223-.432t-.835-1.304q-.265-.877-.265-2.05 0-.909.226-1.761.226-.86.781-1.366.56-.508 1.39-.508.722 0 1.199.458t.727 1.46l.939-.282q-.29-1.272-1.027-1.974t-1.818-.702m-26.586.157v9.188h5.374V8.218h-4.421V5.091h3.984V4.012h-3.984V1.198h4.254V.113zm6.705 0v9.188h.953v-4.08h1.105q.369 0 .53.044.221.069.433.244.216.176.486.614.27.44.688 1.266l.953 1.911h1.199l-1.253-2.5a6.3 6.3 0 0 0-.791-1.222 2.5 2.5 0 0 0-.575-.458q1.037-.181 1.533-.852c.496-.671.496-.997.496-1.648q0-.76-.3-1.385-.3-.627-.8-.871-.501-.25-1.464-.251h-3.194m7.251 0v9.188h.953V5.565h1.847q1.528 0 2.113-.808.584-.813.584-1.987 0-.683-.221-1.254-.216-.57-.575-.884A1.9 1.9 0 0 0 149.22.2q-.378-.088-1.095-.088zm16.788 0V9.3h.953V5.22h1.105q.369 0 .531.044.22.069.432.244.216.176.487.614c.271.438.409.715.688 1.266l.953 1.911h1.199l-1.253-2.5a6.2 6.2 0 0 0-.791-1.222 2.5 2.5 0 0 0-.575-.458q1.036-.182 1.533-.852c.497-.67.496-.997.496-1.648q0-.76-.3-1.385-.3-.627-.801-.871-.501-.25-1.464-.251zm7.222 0V9.3h.918V1.479l2.083 7.821h.86l2.093-7.69V9.3h.919V.112h-1.283l-1.724 6.393a75 75 0 0 0-.383 1.473 72 72 0 0 0-.344-1.36L170.852.112zm-30.31 1.016h2.279q.8 0 1.169.42.374.42.374 1.072 0 .446-.192.827a1.2 1.2 0 0 1-.56.551q-.369.17-1.022.169h-2.048zm24.04 0h2.279q.801 0 1.169.42.373.42.373 1.072 0 .446-.191.827a1.2 1.2 0 0 1-.56.551q-.37.17-1.022.169h-2.048zm-16.786.069h1.842q.648 0 .889.081.374.132.599.545.231.409.231.984 0 .796-.388 1.235c-.388.439-.696.439-1.311.439h-1.862z"/><ellipse cx="81.02" cy="6.143" rx="4.619" ry="4.794"/></g></g></svg>