<svg xmlns="http://www.w3.org/2000/svg" xml:space="preserve" style="fill-rule:evenodd;clip-rule:evenodd;stroke-linejoin:round;stroke-miterlimit:2" viewBox="0 0 40 39"><path d="M3.6.4h32.7c1.8 0 3.2 1.4 3.2 3.2V36c0 1.8-1.4 3.2-3.2 3.2H3.6C1.8 39.2.4 37.8.4 36V3.6C.4 1.8 1.8.4 3.6.4" style="fill:#017ddd" transform="translate(-.4 -.4)"/><path d="M24.1 32.7c-1.1.6-2.6 1-3.4 1.1-3.4.2-6.7-.6-9.1-2.8-2.3-2.4-2.8-5.5-.8-8.1 1.9-2.4 5-3.5 8.2-3.7 1.8-.1 7.9.5 6.1 3.5-1.4 2.4-5.4 0-7.7.8-2.5.9-3.3 4.2-.8 5.6 1.8 1 4.3.9 5.9-.2 2.4-1.6 6.8-8.8 9.7-5.4.8.7-5.9 8-8.1 9.2M7 14.1c-.3-1.2.1-2.5 1.3-2.4 1 .1 1.4 1.6 1.6 2.6.2.9 2.4 7 1.3 6.8s-3.9-5.8-4.2-7m5.8-7c1.6-1.3 2.4.9 2.6 2.1.2 1.1 2.3 9.5.1 9.4-1.6-.1-2.8-7.2-3-8.3-.2-1-.5-2.6.3-3.2M21 4.6c1.4.3 1 3.1 1 4.1 0 1.1.2 9.4-1.5 9.2-1.8-.2-1.5-8.4-1.6-9.8 0-1.4.2-3.8 2.1-3.5m4.2 5.9c.1-.8.3-2.4 1.2-2.7 1.9-.8 1.9 1.6 1.7 2.7s-1.6 9.4-3.5 8.7c-1.5-.7.3-7.6.6-8.7" style="fill:#fff" transform="translate(-.4 -.4)"/></svg>