<svg xmlns="http://www.w3.org/2000/svg" xml:space="preserve" style="fill-rule:evenodd;clip-rule:evenodd;stroke-linejoin:round;stroke-miterlimit:2" viewBox="0 0 971 481"><path d="M299.295 365.321a154.88 154.88 0 0 1-88.6 27.785c-85.874 0-155.738-69.81-155.738-155.621s69.864-155.62 155.739-155.62a154.93 154.93 0 0 1 87.7 27.1c13.938-13.45 28.039-26.541 41.171-37.879A209.72 209.72 0 0 0 210.7 26.941C94.518 26.941 0 121.39 0 237.486s94.523 210.546 210.7 210.546a209.66 209.66 0 0 0 127.717-43.3l75.677 75.623 38.867-38.84-115.244-115.157a156.9 156.9 0 0 1-38.422 38.963m90.193-15.814c44.31-70.014 43.064-160.021-3.168-228.781a1779 1779 0 0 0-36.756 45.723c23.21 44.794 23.086 98.224-.334 142.909zm-177.94-126.542-78.182-53.33-21.48 22.03 101.033 142.037C302.397 171.071 423.281 48.463 423.281 48.463h-33.776c-44.443 36.105-177.957 174.502-177.957 174.502m603.372-85.732c-86 0-155.718 69.576-155.718 155.4S728.919 448.04 814.92 448.04s155.719-69.579 155.719-155.407-69.717-155.4-155.719-155.4m-.674 227.382c-39.07-.071-71.179-32.239-71.179-71.309 0-39.119 32.19-71.309 71.309-71.309s71.308 32.189 71.309 71.308c-.036 39.155-32.284 71.345-71.439 71.31M502.819 446.7h110.549V0H502.819zm62.015-384.8h35.052v33.645h-35.052zm0 48.445h35.052v33.643h-35.052zm0 47.1h35.052v34.945h-35.052zM516.301 13.457h35.051V47.1h-35.051zm0 96.891h35.051v33.643h-35.051z"/></svg>