<svg xmlns="http://www.w3.org/2000/svg" xml:space="preserve" viewBox="0 0 444 453"><path d="M357.38 149.42c-.03-.13-.11-.24-.15-.37-.09-.23-.16-.47-.28-.68-.08-.14-.2-.26-.3-.39-.13-.17-.24-.36-.39-.51-.13-.13-.29-.22-.43-.33-.16-.13-.3-.27-.48-.37l-52.45-30.2a4.35 4.35 0 0 0-4.36 0l-52.45 30.2c-.18.1-.32.25-.48.37-.14.11-.3.2-.43.33-.15.15-.26.34-.39.51-.1.13-.22.25-.3.39-.12.21-.2.45-.28.68-.05.12-.12.24-.15.37q-.15.555-.15 1.14v57.36l-43.71 25.17V120.87q0-.585-.15-1.14c-.03-.13-.11-.24-.15-.37-.09-.23-.16-.47-.28-.68-.08-.14-.2-.26-.3-.39-.13-.17-.24-.36-.39-.51-.13-.13-.29-.22-.43-.33-.16-.13-.3-.27-.48-.37l-52.45-30.2a4.35 4.35 0 0 0-4.36 0l-52.45 30.2c-.18.1-.32.25-.48.37-.14.11-.3.2-.43.33-.15.15-.26.34-.39.51-.1.13-.22.25-.3.39-.12.21-.2.45-.28.68-.05.12-.12.24-.15.37q-.15.555-.15 1.14v179.66c0 1.56.84 3.01 2.19 3.79l104.91 60.4c.23.13.48.21.72.3.11.04.22.11.34.14a4.26 4.26 0 0 0 2.24 0c.1-.03.19-.09.29-.12.26-.09.52-.18.76-.31l104.91-60.4a4.36 4.36 0 0 0 2.19-3.79v-57.36l50.26-28.94a4.36 4.36 0 0 0 2.19-3.79v-59.89c-.05-.39-.11-.77-.2-1.14M195.78 295.5l-43.63-24.69 45.82-26.38 50.27-28.94 43.67 25.14-32.04 18.29zm100.55-112.21v49.8l-18.36-10.57-25.36-14.6v-49.8l18.36 10.57zm4.37-57.89 43.69 25.16-43.69 25.16-43.69-25.16zM166.07 252.72l-18.36 10.57V153.6l25.36-14.6 18.36-10.57v109.68zm-22.73-157 43.69 25.16-43.69 25.16-43.69-25.16zm-48.09 32.71L113.61 139l25.36 14.6v117.26c0 .17.05.33.07.49.03.21.03.43.09.64v.01c.05.17.14.33.21.49.08.18.13.38.23.55 0 0 0 .01.01.01.09.15.22.28.33.42.12.16.22.32.36.46l.01.01c.12.12.28.21.42.32.16.12.3.26.47.36.01 0 .01 0 .02.01.01 0 .01.01.02.01l50.24 28.43v50.29L95.25 298zM296.33 298l-96.17 55.37v-50.3l71.22-40.66 24.95-14.24zm52.45-90.08-43.71 25.17v-49.8l25.36-14.6 18.36-10.57v49.8z" style="fill:#ff2d20"/></svg>